<svg viewBox="-10 -10 1000 1000" xmlns="http://www.w3.org/2000/svg">
<line stroke="blue" stroke-width="1" x1="900" x2="900" y1="459.814906996353" y2="470.8595345246198"/>
<line stroke="blue" stroke-width="1" x1="894.1485417068785" x2="894.1485417068785" y1="470.8595345246198" y2="482.07787722096367"/>
<line stroke="blue" stroke-width="1" x1="896.3428385667991" x2="896.3428385667991" y1="482.07787722096367" y2="493.0585044241494"/>
<line stroke="blue" stroke-width="1" x1="893.9108262137204" x2="893.9108262137204" y1="493.0585044241494" y2="503.81970194134317"/>
<line stroke="blue" stroke-width="1" x1="890.2079502626045" x2="890.2079502626045" y1="503.81970194134317" y2="515.0563304448531"/>
<line stroke="blue" stroke-width="1" x1="890.9576683564106" x2="890.9576683564106" y1="515.0563304448531" y2="526.2563873340309"/>
<line stroke="blue" stroke-width="1" x1="890.7748102847506" x2="890.7748102847506" y1="526.2563873340309" y2="536.4507248290785"/>
<line stroke="blue" stroke-width="1" x1="884.7496368235521" x2="884.7496368235521" y1="536.4507248290785" y2="547.1479220211912"/>
<line stroke="blue" stroke-width="1" x1="882.0890518808984" x2="882.0890518808984" y1="547.1479220211912" y2="559.9479870373945"/>
<line stroke="blue" stroke-width="1" x1="888.342797931672" x2="888.342797931672" y1="559.9479870373945" y2="568.8257464164897"/>
<line stroke="blue" stroke-width="1" x1="878.0021739792963" x2="878.0021739792963" y1="568.8257464164897" y2="579.8520881375905"/>
<line stroke="blue" stroke-width="1" x1="876.393022948688" x2="876.393022948688" y1="579.8520881375905" y2="589.7721385251481"/>
<line stroke="blue" stroke-width="1" x1="871.0992817741296" x2="871.0992817741296" y1="589.7721385251481" y2="602.8373477452584"/>
<line stroke="blue" stroke-width="1" x1="875.1221593506507" x2="875.1221593506507" y1="602.8373477452584" y2="613.205400408383"/>
<line stroke="blue" stroke-width="1" x1="870.8432804738055" x2="870.8432804738055" y1="613.205400408383" y2="622.9608785314465"/>
<line stroke="blue" stroke-width="1" x1="865.0923941200971" x2="865.0923941200971" y1="622.9608785314465" y2="633.146073122911"/>
<line stroke="blue" stroke-width="1" x1="860.539228135762" x2="860.539228135762" y1="633.146073122911" y2="641.3564005404472"/>
<line stroke="blue" stroke-width="1" x1="851.7620406960797" x2="851.7620406960797" y1="641.3564005404472" y2="653.2878897162652"/>
<line stroke="blue" stroke-width="1" x1="850.9757509879415" x2="850.9757509879415" y1="653.2878897162652" y2="664.7348050021841"/>
<line stroke="blue" stroke-width="1" x1="848.7723112244379" x2="848.7723112244379" y1="664.7348050021841" y2="671.1348375102857"/>
<line stroke="blue" stroke-width="1" x1="837.252252709855" x2="837.252252709855" y1="671.1348375102857" y2="684.2274754411451"/>
<line stroke="blue" stroke-width="1" x1="837.6271117567582" x2="837.6271117567582" y1="684.2274754411451" y2="693.8275242032976"/>
<line stroke="blue" stroke-width="1" x1="831.8030821743856" x2="831.8030821743856" y1="693.8275242032976" y2="699.1852657029369"/>
<line stroke="blue" stroke-width="1" x1="819.6247346018265" x2="819.6247346018265" y1="699.1852657029369" y2="708.7670286579233"/>
<line stroke="blue" stroke-width="1" x1="814.0475634161951" x2="814.0475634161951" y1="708.7670286579233" y2="717.8642177230106"/>
<line stroke="blue" stroke-width="1" x1="807.7481028475065" x2="807.7481028475065" y1="717.8642177230106" y2="730.0242794884037"/>
<line stroke="blue" stroke-width="1" x1="805.3069475908449" x2="805.3069475908449" y1="730.0242794884037" y2="736.5888842609994"/>
<line stroke="blue" stroke-width="1" x1="795.6611843107775" x2="795.6611843107775" y1="736.5888842609994" y2="743.9032071274013"/>
<line stroke="blue" stroke-width="1" x1="787.1217123642532" x2="787.1217123642532" y1="743.9032071274013" y2="751.8301045338643"/>
<line stroke="blue" stroke-width="1" x1="779.3868159330333" x2="779.3868159330333" y1="751.8301045338643" y2="758.4769954387069"/>
<line stroke="blue" stroke-width="1" x1="770.3353413858609" x2="770.3353413858609" y1="758.4769954387069" y2="768.9364771376617"/>
<line stroke="blue" stroke-width="1" x1="765.1970295722136" x2="765.1970295722136" y1="768.9364771376617" y2="776.3696577506425"/>
<line stroke="blue" stroke-width="1" x1="756.9409876367625" x2="756.9409876367625" y1="776.3696577506425" y2="784.5342706502636"/>
<line stroke="blue" stroke-width="1" x1="749.3615205664537" x2="749.3615205664537" y1="784.5342706502636" y2="795.2863252638743"/>
<line stroke="blue" stroke-width="1" x1="743.9032071274013" x2="743.9032071274013" y1="795.2863252638743" y2="802.2440748905391"/>
<line stroke="blue" stroke-width="1" x1="735.080305169804" x2="735.080305169804" y1="802.2440748905391" y2="803.0212216950943"/>
<line stroke="blue" stroke-width="1" x1="721.5488078669606" x2="721.5488078669606" y1="803.0212216950943" y2="815.6292857360545"/>
<line stroke="blue" stroke-width="1" x1="717.0596422077065" x2="717.0596422077065" y1="815.6292857360545" y2="817.476152259821"/>
<line stroke="blue" stroke-width="1" x1="704.7258652742363" x2="704.7258652742363" y1="817.476152259821" y2="824.2876154291577"/>
<line stroke="blue" stroke-width="1" x1="695.939534930971" x2="695.939534930971" y1="824.2876154291577" y2="832.4247996180297"/>
<line stroke="blue" stroke-width="1" x1="687.921208488678" x2="687.921208488678" y1="832.4247996180297" y2="832.8453731828479"/>
<line stroke="blue" stroke-width="1" x1="675.2582870262198" x2="675.2582870262198" y1="832.8453731828479" y2="842.9208529313164"/>
<line stroke="blue" stroke-width="1" x1="668.227394170891" x2="668.227394170891" y1="842.9208529313164" y2="843.4694271462965"/>
<line stroke="blue" stroke-width="1" x1="655.9850462732509" x2="655.9850462732509" y1="843.4694271462965" y2="852.1003281286507"/>
<line stroke="blue" stroke-width="1" x1="647.9210053130429" x2="647.9210053130429" y1="852.1003281286507" y2="859.1037922732305"/>
<line stroke="blue" stroke-width="1" x1="638.8969594766196" x2="638.8969594766196" y1="859.1037922732305" y2="858.2535022400114"/>
<line stroke="blue" stroke-width="1" x1="626.4077531822384" x2="626.4077531822384" y1="858.2535022400114" y2="867.4421203409287"/>
<line stroke="blue" stroke-width="1" x1="618.1699970539532" x2="618.1699970539532" y1="867.4421203409287" y2="870.0021333441694"/>
<line stroke="blue" stroke-width="1" x1="607.2167985615165" x2="607.2167985615165" y1="870.0021333441694" y2="870.5324217519835"/>
<line stroke="blue" stroke-width="1" x1="595.6601684326015" x2="595.6601684326015" y1="870.5324217519835" y2="879.6113250099048"/>
<line stroke="blue" stroke-width="1" x1="586.8921238965023" x2="586.8921238965023" y1="879.6113250099048" y2="876.0638784196999"/>
<line stroke="blue" stroke-width="1" x1="574.2749169519591" x2="574.2749169519591" y1="876.0638784196999" y2="883.9176325974988"/>
<line stroke="blue" stroke-width="1" x1="564.8942978757988" x2="564.8942978757988" y1="883.9176325974988" y2="880.9736176437722"/>
<line stroke="blue" stroke-width="1" x1="552.7982364354866" x2="552.7982364354866" y1="880.9736176437722" y2="891.8811016182939"/>
<line stroke="blue" stroke-width="1" x1="543.7467618883144" x2="543.7467618883144" y1="891.8811016182939" y2="885.2250678098682"/>
<line stroke="blue" stroke-width="1" x1="531.2026981724351" x2="531.2026981724351" y1="885.2250678098682" y2="890.4913802736776"/>
<line stroke="blue" stroke-width="1" x1="520.8529313164765" x2="520.8529313164765" y1="890.4913802736776" y2="891.1039548137387"/>
<line stroke="blue" stroke-width="1" x1="509.7443034631287" x2="509.7443034631287" y1="891.1039548137387" y2="897.5131302254233"/>
<line stroke="blue" stroke-width="1" x1="499.23910724625904" x2="499.23910724625904" y1="897.5131302254233" y2="892.7222487479302"/>
<line stroke="blue" stroke-width="1" x1="487.66419131017807" x2="487.66419131017807" y1="892.7222487479302" y2="896.7268405172852"/>
<line stroke="blue" stroke-width="1" x1="476.7749931428223" x2="476.7749931428223" y1="896.7268405172852" y2="896.196552109471"/>
<line stroke="blue" stroke-width="1" x1="465.61150786797646" x2="465.61150786797646" y1="896.196552109471" y2="893.0331074697522"/>
<line stroke="blue" stroke-width="1" x1="454.51202291821164" x2="454.51202291821164" y1="893.0331074697522" y2="892.146245822201"/>
<line stroke="blue" stroke-width="1" x1="443.4856811971108" x2="443.4856811971108" y1="892.146245822201" y2="892.548533579853"/>
<line stroke="blue" stroke-width="1" x1="432.42276786167804" x2="432.42276786167804" y1="892.548533579853" y2="898.7839938234606"/>
<line stroke="blue" stroke-width="1" x1="420.82042321484806" x2="420.82042321484806" y1="898.7839938234606" y2="895.7576927374869"/>
<line stroke="blue" stroke-width="1" x1="409.8580818188283" x2="409.8580818188283" y1="895.7576927374869" y2="893.7462539492263"/>
<line stroke="blue" stroke-width="1" x1="398.85002590489347" x2="398.85002590489347" y1="893.7462539492263" y2="890.6376667310055"/>
<line stroke="blue" stroke-width="1" x1="388.05225677336773" x2="388.05225677336773" y1="890.6376667310055" y2="892.118817111452"/>
<line stroke="blue" stroke-width="1" x1="376.4681979337038" x2="376.4681979337038" y1="892.118817111452" y2="884.9233519916291"/>
<line stroke="blue" stroke-width="1" x1="366.52986173898023" x2="366.52986173898023" y1="884.9233519916291" y2="882.1347663988134"/>
<line stroke="blue" stroke-width="1" x1="355.8052358361185" x2="355.8052358361185" y1="882.1347663988134" y2="884.511921330394"/>
<line stroke="blue" stroke-width="1" x1="343.72746020297245" x2="343.72746020297245" y1="884.511921330394" y2="877.8101730040534"/>
<line stroke="blue" stroke-width="1" x1="334.017696597824" x2="334.017696597824" y1="877.8101730040534" y2="873.0284344301431"/>
<line stroke="blue" stroke-width="1" x1="323.8873594278574" x2="323.8873594278574" y1="873.0284344301431" y2="869.2158436360312"/>
<line stroke="blue" stroke-width="1" x1="313.50102095756677" x2="313.50102095756677" y1="869.2158436360312" y2="870.7152798236435"/>
<line stroke="blue" stroke-width="1" x1="301.1215295061816" x2="301.1215295061816" y1="870.7152798236435" y2="864.5529628086999"/>
<line stroke="blue" stroke-width="1" x1="291.53976655119516" x2="291.53976655119516" y1="864.5529628086999" y2="855.6112031045237"/>
<line stroke="blue" stroke-width="1" x1="283.28372461574406" x2="283.28372461574406" y1="855.6112031045237" y2="855.2820585755356"/>
<line stroke="blue" stroke-width="1" x1="271.288235114845" x2="271.288235114845" y1="855.2820585755356" y2="852.776902993793"/>
<line stroke="blue" stroke-width="1" x1="260.0973211292502" x2="260.0973211292502" y1="852.776902993793" y2="841.5219886831171"/>
<line stroke="blue" stroke-width="1" x1="253.39557280290947" x2="253.39557280290947" y1="841.5219886831171" y2="842.6282800166604"/>
<line stroke="blue" stroke-width="1" x1="240.12007680039008" x2="240.12007680039008" y1="842.6282800166604" y2="831.7939392708026"/>
<line stroke="blue" stroke-width="1" x1="233.53718622062843" x2="233.53718622062843" y1="831.7939392708026" y2="831.1996505379075"/>
<line stroke="blue" stroke-width="1" x1="220.83769314383818" x2="220.83769314383818" y1="831.1996505379075" y2="821.179028210937"/>
<line stroke="blue" stroke-width="1" x1="214.05365868525047" x2="214.05365868525047" y1="821.179028210937" y2="813.700133080041"/>
<line stroke="blue" stroke-width="1" x1="205.76104513546736" x2="205.76104513546736" y1="813.700133080041" y2="812.9047004683198"/>
<line stroke="blue" stroke-width="1" x1="192.576978168778" x2="192.576978168778" y1="812.9047004683198" y2="800.4612086918537"/>
<line stroke="blue" stroke-width="1" x1="188.06038379877484" x2="188.06038379877484" y1="800.4612086918537" y2="797.9469102065281"/>
<line stroke="blue" stroke-width="1" x1="175.80889299755174" x2="175.80889299755174" y1="797.9469102065281" y2="787.2588559179983"/>
<line stroke="blue" stroke-width="1" x1="170.2682934262523" x2="170.2682934262523" y1="787.2588559179983" y2="783.2908357629752"/>
<line stroke="blue" stroke-width="1" x1="158.8762355618314" x2="158.8762355618314" y1="783.2908357629752" y2="771.1490598047482"/>
<line stroke="blue" stroke-width="1" x1="155.01793024980444" x2="155.01793024980444" y1="771.1490598047482" y2="765.2976015116267"/>
<line stroke="blue" stroke-width="1" x1="145.23502341599195" x2="145.23502341599195" y1="765.2976015116267" y2="757.6998486341517"/>
<line stroke="blue" stroke-width="1" x1="137.10698213070287" x2="137.10698213070287" y1="757.6998486341517" y2="750.760384814653"/>
<line stroke="blue" stroke-width="1" x1="128.17436533010962" x2="128.17436533010962" y1="750.760384814653" y2="742.915773540437"/>
<line stroke="blue" stroke-width="1" x1="120.15603888781656" x2="120.15603888781656" y1="742.915773540437" y2="732.8951512134664"/>
<line stroke="blue" stroke-width="1" x1="114.75258287026219" x2="114.75258287026219" y1="732.8951512134664" y2="725.8002580330567"/>
<line stroke="blue" stroke-width="1" x1="105.7011083230899" x2="105.7011083230899" y1="725.8002580330567" y2="713.7864827249916"/>
<line stroke="blue" stroke-width="1" x1="103.17766693418125" x2="103.17766693418125" y1="713.7864827249916" y2="703.33614392962"/>
<line stroke="blue" stroke-width="1" x1="98.82564482867214" x2="98.82564482867214" y1="703.33614392962" y2="695.5006755589869"/>
<line stroke="blue" stroke-width="1" x1="90.67931773621707" x2="90.67931773621707" y1="695.5006755589869" y2="689.3475014476264"/>
<line stroke="blue" stroke-width="1" x1="79.54326117212024" x2="79.54326117212024" y1="689.3475014476264" y2="678.8148765200077"/>
<line stroke="blue" stroke-width="1" x1="75.31009681319016" x2="75.31009681319016" y1="678.8148765200077" y2="666.3988134542906"/>
<line stroke="blue" stroke-width="1" x1="74.69752227312901" x2="74.69752227312901" y1="666.3988134542906" y2="659.4867783455408"/>
<line stroke="blue" stroke-width="1" x1="63.99118217743328" x2="63.99118217743328" y1="659.4867783455408" y2="647.7838617592978"/>
<line stroke="blue" stroke-width="1" x1="62.482603086237894" x2="62.482603086237894" y1="647.7838617592978" y2="636.693519713116"/>
<line stroke="blue" stroke-width="1" x1="60.068876540325284" x2="60.068876540325284" y1="636.693519713116" y2="627.9254751770168"/>
<line stroke="purple" stroke-width="1" x1="52.43455204851834" x2="52.43455204851834" y1="627.9254751770168" y2="617.9962818858762"/>
<line stroke="blue" stroke-width="1" x1="47.26881152412203" x2="47.26881152412203" y1="617.9962818858762" y2="605.5253613986611"/>
<line stroke="blue" stroke-width="1" x1="48.94196287981145" x2="48.94196287981145" y1="605.5253613986611" y2="596.6476020195657"/>
<line stroke="blue" stroke-width="1" x1="40.813921594522384" x2="40.813921594522384" y1="596.6476020195657" y2="587.0566961609964"/>
<line stroke="blue" stroke-width="1" x1="34.13045907534768" x2="34.13045907534768" y1="587.0566961609964" y2="574.183487916129"/>
<line stroke="blue" stroke-width="1" x1="38.55562440952081" x2="38.55562440952081" y1="574.183487916129" y2="564.6657252862236"/>
<line stroke="blue" stroke-width="1" x1="31.268730253867954" x2="31.268730253867954" y1="564.6657252862236" y2="553.5753832400418"/>
<line stroke="blue" stroke-width="1" x1="29.851580198502596" x2="29.851580198502596" y1="553.5753832400418" y2="543.5547609130713"/>
<line stroke="blue" stroke-width="1" x1="23.37840446173695" x2="23.37840446173695" y1="543.5547609130713" y2="531.8975588447433"/>
<line stroke="blue" stroke-width="1" x1="25.03327001026037" x2="25.03327001026037" y1="531.8975588447433" y2="521.1455042311326"/>
<line stroke="blue" stroke-width="1" x1="21.76925343112854" x2="21.76925343112854" y1="521.1455042311326" y2="509.7077318487967"/>
<line stroke="blue" stroke-width="1" x1="23.497262208315977" x2="23.497262208315977" y1="509.7077318487967" y2="499.03796336743295"/>
<line stroke="blue" stroke-width="1" x1="18.861810091733798" x2="18.861810091733798" y1="499.03796336743295" y2="487.7464774424251"/>
<line stroke="blue" stroke-width="1" x1="20.416103700844193" x2="20.416103700844193" y1="487.7464774424251" y2="476.8481363714863"/>
<line stroke="blue" stroke-width="1" x1="15.963509655922062" x2="15.963509655922062" y1="476.8481363714863" y2="465.57493625364447"/>
<line stroke="blue" stroke-width="1" x1="19.949815618111074" x2="19.949815618111074" y1="465.57493625364447" y2="459.6046202139439"/>
<line stroke="blue" stroke-width="1" x1="865.2295376738422" x2="865.2295376738422" y1="459.6046202139439" y2="443.2845373182848"/>
<line stroke="blue" stroke-width="1" x1="15.716651259180999" x2="15.716651259180999" y1="443.2845373182848" y2="432.42276786167804"/>
<line stroke="blue" stroke-width="1" x1="21.69611020246452" x2="21.69611020246452" y1="432.42276786167804" y2="421.3964261405772"/>
<line stroke="blue" stroke-width="1" x1="22.47325700701972" x2="22.47325700701972" y1="421.3964261405772" y2="410.3152269979784"/>
<line stroke="blue" stroke-width="1" x1="22.784115728841797" x2="22.784115728841797" y1="410.3152269979784" y2="399.41688592703963"/>
<line stroke="blue" stroke-width="1" x1="24.786411613519306" x2="24.786411613519306" y1="399.41688592703963" y2="388.37225839877283"/>
<line stroke="blue" stroke-width="1" x1="25.682416164653535" x2="25.682416164653535" y1="388.37225839877283" y2="377.47391732783404"/>
<line stroke="blue" stroke-width="1" x1="27.620711724250025" x2="27.620711724250025" y1="377.47391732783404" y2="365.71614332009307"/>
<line stroke="blue" stroke-width="1" x1="25.490415189410484" x2="25.490415189410484" y1="365.71614332009307" y2="355.54009163221144"/>
<line stroke="blue" stroke-width="1" x1="31.01272895354389" x2="31.01272895354389" y1="355.54009163221144" y2="343.9103182746325"/>
<line stroke="blue" stroke-width="1" x1="30.45501183498075" x2="30.45501183498075" y1="343.9103182746325" y2="333.88969594766195"/>
<line stroke="blue" stroke-width="1" x1="36.032183020612166" x2="36.032183020612166" y1="333.88969594766195" y2="323.3844997307923"/>
<line stroke="blue" stroke-width="1" x1="39.66191574306409" x2="39.66191574306409" y1="323.3844997307923" y2="313.2541625608257"/>
<line stroke="blue" stroke-width="1" x1="44.34308237756128" x2="44.34308237756128" y1="313.2541625608257" y2="301.22210144559466"/>
<line stroke="blue" stroke-width="1" x1="43.840222680496154" x2="43.840222680496154" y1="301.22210144559466" y2="293.4597763036257"/>
<line stroke="blue" stroke-width="1" x1="54.45513374036185" x2="54.45513374036185" y1="293.4597763036257" y2="283.4117252659061"/>
<line stroke="blue" stroke-width="1" x1="58.953442303199" x2="58.953442303199" y1="283.4117252659061" y2="272.92481485620243"/>
<line stroke="blue" stroke-width="1" x1="62.5100317969869" x2="62.5100317969869" y1="272.92481485620243" y2="260.6824669585623"/>
<line stroke="blue" stroke-width="1" x1="62.67460406148095" x2="62.67460406148095" y1="260.6824669585623" y2="252.04242307262513"/>
<line stroke="blue" stroke-width="1" x1="70.21749951745787" x2="70.21749951745787" y1="252.04242307262513" y2="243.23780692219387"/>
<line stroke="blue" stroke-width="1" x1="77.18439204770564" x2="77.18439204770564" y1="243.23780692219387" y2="233.22632749880634"/>
<line stroke="blue" stroke-width="1" x1="81.95698771803285" x2="81.95698771803285" y1="233.22632749880634" y2="220.41711957902007"/>
<line stroke="blue" stroke-width="1" x1="82.40498999359997" x2="82.40498999359997" y1="220.41711957902007" y2="212.6365086298851"/>
<line stroke="blue" stroke-width="1" x1="90.98103355445615" x2="90.98103355445615" y1="212.6365086298851" y2="206.7301929152656"/>
<line stroke="blue" stroke-width="1" x1="101.96166075764194" x2="101.96166075764194" y1="206.7301929152656" y2="196.90157156353808"/>
<line stroke="blue" stroke-width="1" x1="107.19140160711927" x2="107.19140160711927" y1="196.90157156353808" y2="188.05124089519185"/>
<line stroke="blue" stroke-width="1" x1="113.80172089762995" x2="113.80172089762995" y1="188.05124089519185" y2="178.20433373629834"/>
<line stroke="blue" stroke-width="1" x1="119.24174852951634" x2="119.24174852951634" y1="178.20433373629834" y2="168.1837114093278"/>
<line stroke="blue" stroke-width="1" x1="124.63606164348771" x2="124.63606164348771" y1="168.1837114093278" y2="161.76539309406016"/>
<line stroke="blue" stroke-width="1" x1="134.14468136981012" x2="134.14468136981012" y1="161.76539309406016" y2="153.82935278401413"/>
<line stroke="blue" stroke-width="1" x1="141.8887207046131" x2="141.8887207046131" y1="153.82935278401413" y2="146.39617217103324"/>
<line stroke="blue" stroke-width="1" x1="150.1264768328982" x2="150.1264768328982" y1="146.39617217103324" y2="137.77441409226205"/>
<line stroke="blue" stroke-width="1" x1="157.212227109725" x2="157.212227109725" y1="137.77441409226205" y2="130.0760892753741"/>
<line stroke="blue" stroke-width="1" x1="165.21226774485203" x2="165.21226774485203" y1="130.0760892753741" y2="125.24863618354887"/>
<line stroke="blue" stroke-width="1" x1="175.6808923473897" x2="175.6808923473897" y1="125.24863618354887" y2="113.04285990024076"/>
<line stroke="blue" stroke-width="1" x1="180.0054857421498" x2="180.0054857421498" y1="113.04285990024076" y2="107.32854516086431"/>
<line stroke="blue" stroke-width="1" x1="189.73353515446428" x2="189.73353515446428" y1="107.32854516086431" y2="102.70223594786513"/>
<line stroke="blue" stroke-width="1" x1="200.14730233550392" x2="200.14730233550392" y1="102.70223594786513" y2="93.81533366518687"/>
<line stroke="blue" stroke-width="1" x1="207.4981968162378" x2="207.4981968162378" y1="93.81533366518687" y2="86.20843788412893"/>
<line stroke="blue" stroke-width="1" x1="215.8822394018509" x2="215.8822394018509" y1="86.20843788412893" y2="81.18898381706066"/>
<line stroke="blue" stroke-width="1" x1="225.94857624673648" x2="225.94857624673648" y1="81.18898381706066" y2="79.90897731544032"/>
<line stroke="blue" stroke-width="1" x1="238.13606672287858" x2="238.13606672287858" y1="79.90897731544032" y2="72.53979702754046"/>
<line stroke="blue" stroke-width="1" x1="246.69382447656875" x2="246.69382447656875" y1="72.53979702754046" y2="70.81178825035302"/>
<line stroke="blue" stroke-width="1" x1="258.2961691233987" x2="258.2961691233987" y1="70.81178825035302" y2="64.17404024909332"/>
<line stroke="blue" stroke-width="1" x1="267.311072056239" x2="267.311072056239" y1="64.17404024909332" y2="57.024289647185505"/>
<line stroke="blue" stroke-width="1" x1="276.2162601460833" x2="276.2162601460833" y1="57.024289647185505" y2="51.30997490780906"/>
<line stroke="blue" stroke-width="1" x1="285.8803092333167" x2="285.8803092333167" y1="51.30997490780906" y2="46.13509147982974"/>
<line stroke="blue" stroke-width="1" x1="295.83693123520624" x2="295.83693123520624" y1="46.13509147982974" y2="47.899671871349184"/>
<line stroke="blue" stroke-width="1" x1="308.3809949510855" x2="308.3809949510855" y1="47.899671871349184" y2="38.1259079411197"/>
<line stroke="blue" stroke-width="1" x1="316.73760882594956" x2="316.73760882594956" y1="38.1259079411197" y2="38.052764712455684"/>
<line stroke="blue" stroke-width="1" x1="328.43138250860954" x2="328.43138250860954" y1="38.052764712455684" y2="31.460731229111005"/>
<line stroke="blue" stroke-width="1" x1="338.11371740300905" x2="338.11371740300905" y1="31.460731229111005" y2="33.67331389619757"/>
<line stroke="blue" stroke-width="1" x1="350.2189217469041" x2="350.2189217469041" y1="33.67331389619757" y2="25.408129057163464"/>
<line stroke="blue" stroke-width="1" x1="359.7001127624775" x2="359.7001127624775" y1="25.408129057163464" y2="22.747544114509786"/>
<line stroke="blue" stroke-width="1" x1="370.5984538334163" x2="370.5984538334163" y1="22.747544114509786" y2="23.085831547080872"/>
<line stroke="blue" stroke-width="1" x1="382.0453691193352" x2="382.0453691193352" y1="23.085831547080872" y2="21.26639373406341"/>
<line stroke="blue" stroke-width="1" x1="393.062567936853" x2="393.062567936853" y1="21.26639373406341" y2="25.691559068236536"/>
<line stroke="blue" stroke-width="1" x1="404.83862775176" x2="404.83862775176" y1="25.691559068236536" y2="23.040117029165863"/>
<line stroke="blue" stroke-width="1" x1="415.64553978686877" x2="415.64553978686877" y1="23.040117029165863" y2="23.606977051312008"/>
<line stroke="blue" stroke-width="1" x1="426.75416764021656" x2="426.75416764021656" y1="23.606977051312008" y2="20.214959822018145"/>
<line stroke="blue" stroke-width="1" x1="437.62508000040634" x2="437.62508000040634" y1="20.214959822018145" y2="15.314363501528897"/>
<line stroke="blue" stroke-width="1" x1="448.61485010717513" x2="448.61485010717513" y1="15.314363501528897" y2="14.5372166969737"/>
<line stroke="blue" stroke-width="1" x1="459.814906996353" x2="459.814906996353" y1="14.5372166969737" y2="22.509828621351726"/>
<line stroke="blue" stroke-width="1" x1="470.77724839237277" x2="470.77724839237277" y1="22.509828621351726" y2="16.731513556894257"/>
<line stroke="blue" stroke-width="1" x1="482.14187754604467" x2="482.14187754604467" y1="16.731513556894257" y2="20.452675315176204"/>
<line stroke="blue" stroke-width="1" x1="493.04936152056644" x2="493.04936152056644" y1="20.452675315176204" y2="22.116683767282627"/>
<line stroke="blue" stroke-width="1" x1="504.02998872375224" x2="504.02998872375224" y1="22.116683767282627" y2="19.41952721029694"/>
<line stroke="blue" stroke-width="1" x1="515.5774759490841" x2="515.5774759490841" y1="19.41952721029694" y2="25.179556467588405"/>
<line stroke="blue" stroke-width="1" x1="525.9912431301238" x2="525.9912431301238" y1="25.179556467588405" y2="28.169285939230168"/>
<line stroke="blue" stroke-width="1" x1="536.7067261294026" x2="536.7067261294026" y1="28.169285939230168" y2="26.13956134380365"/>
<line stroke="blue" stroke-width="1" x1="548.4279285228115" x2="548.4279285228115" y1="26.13956134380365" y2="34.651604579578816"/>
<line stroke="blue" stroke-width="1" x1="557.8725479240529" x2="557.8725479240529" y1="34.651604579578816" y2="36.76361530725235"/>
<line stroke="blue" stroke-width="1" x1="568.6977457663277" x2="568.6977457663277" y1="36.76361530725235" y2="39.844773814724135"/>
<line stroke="blue" stroke-width="1" x1="579.2760852118614" x2="579.2760852118614" y1="39.844773814724135" y2="41.86535550656765"/>
<line stroke="blue" stroke-width="1" x1="590.1927120899661" x2="590.1927120899661" y1="41.86535550656765" y2="41.81964098865264"/>
<line stroke="blue" stroke-width="1" x1="601.9047715797922" x2="601.9047715797922" y1="41.81964098865264" y2="43.70307912675112"/>
<line stroke="blue" stroke-width="1" x1="613.10482846897" x2="613.10482846897" y1="43.70307912675112" y2="53.952274043296725"/>
<line stroke="blue" stroke-width="1" x1="621.0225829718499" x2="621.0225829718499" y1="53.952274043296725" y2="57.13400449018154"/>
<line stroke="blue" stroke-width="1" x1="631.6649227424647" x2="631.6649227424647" y1="57.13400449018154" y2="62.15345855724981"/>
<line stroke="blue" stroke-width="1" x1="641.5209728049413" x2="641.5209728049413" y1="62.15345855724981" y2="64.30204089925536"/>
<line stroke="blue" stroke-width="1" x1="652.7850300192001" x2="652.7850300192001" y1="64.30204089925536" y2="72.13750926988835"/>
<line stroke="blue" stroke-width="1" x1="661.2147871227282" x2="661.2147871227282" y1="72.13750926988835" y2="71.12264697217509"/>
<line stroke="blue" stroke-width="1" x1="674.4537115109156" x2="674.4537115109156" y1="71.12264697217509" y2="82.42327580076596"/>
<line stroke="blue" stroke-width="1" x1="680.7806007903532" x2="680.7806007903532" y1="82.42327580076596" y2="87.55244471083027"/>
<line stroke="blue" stroke-width="1" x1="690.6183650456637" x2="690.6183650456637" y1="87.55244471083027" y2="91.27360646911222"/>
<line stroke="blue" stroke-width="1" x1="701.4435628879385" x2="701.4435628879385" y1="91.27360646911222" y2="97.21649379806374"/>
<line stroke="blue" stroke-width="1" x1="710.8973251927629" x2="710.8973251927629" y1="97.21649379806374" y2="107.23711612503428"/>
<line stroke="blue" stroke-width="1" x1="717.3430722187795" x2="717.3430722187795" y1="107.23711612503428" y2="113.31714700773082"/>
<line stroke="blue" stroke-width="1" x1="726.6139764519438" x2="726.6139764519438" y1="113.31714700773082" y2="117.77888395623596"/>
<line stroke="blue" stroke-width="1" x1="737.2837449333076" x2="737.2837449333076" y1="117.77888395623596" y2="127.69893434379348"/>
<line stroke="blue" stroke-width="1" x1="743.4277761410851" x2="743.4277761410851" y1="127.69893434379348" y2="135.1321149567744"/>
<line stroke="blue" stroke-width="1" x1="751.6198177514552" x2="751.6198177514552" y1="135.1321149567744" y2="142.77558235216432"/>
<line stroke="blue" stroke-width="1" x1="759.6015725794163" x2="759.6015725794163" y1="142.77558235216432" y2="148.5630403202048"/>
<line stroke="blue" stroke-width="1" x1="769.4667655454757" x2="769.4667655454757" y1="148.5630403202048" y2="158.8579497546654"/>
<line stroke="blue" stroke-width="1" x1="774.7513638164511" x2="774.7513638164511" y1="158.8579497546654" y2="164.94712354094497"/>
<line stroke="blue" stroke-width="1" x1="784.5068419395146" x2="784.5068419395146" y1="164.94712354094497" y2="174.27288519560733"/>
<line stroke="blue" stroke-width="1" x1="790.6965876652072" x2="790.6965876652072" y1="174.27288519560733" y2="182.83064294929753"/>
<line stroke="blue" stroke-width="1" x1="797.727480520536" x2="797.727480520536" y1="182.83064294929753" y2="191.7998313642228"/>
<line stroke="blue" stroke-width="1" x1="804.2372278716336" x2="804.2372278716336" y1="191.7998313642228" y2="200.8513059113951"/>
<line stroke="blue" stroke-width="1" x1="810.6098316689862" x2="810.6098316689862" y1="200.8513059113951" y2="207.67191198431485"/>
<line stroke="blue" stroke-width="1" x1="820.2190233347217" x2="820.2190233347217" y1="207.67191198431485" y2="216.62281459207412"/>
<line stroke="blue" stroke-width="1" x1="826.9207716610624" x2="826.9207716610624" y1="216.62281459207412" y2="224.88799943110823"/>
<line stroke="blue" stroke-width="1" x1="834.8202403567764" x2="834.8202403567764" y1="224.88799943110823" y2="235.30176661214787"/>
<line stroke="blue" stroke-width="1" x1="839.2545485945325" x2="839.2545485945325" y1="235.30176661214787" y2="245.18524538537338"/>
<line stroke="blue" stroke-width="1" x1="844.5117181547589" x2="844.5117181547589" y1="245.18524538537338" y2="255.461869012668"/>
<line stroke="blue" stroke-width="1" x1="848.982598006847" x2="848.982598006847" y1="255.461869012668" y2="266.4790678301858"/>
<line stroke="blue" stroke-width="1" x1="851.8351839247438" x2="851.8351839247438" y1="266.4790678301858" y2="276.84712049331046"/>
<line stroke="blue" stroke-width="1" x1="855.8580615012647" x2="855.8580615012647" y1="276.84712049331046" y2="288.0014628645733"/>
<line stroke="blue" stroke-width="1" x1="857.9335006146063" x2="857.9335006146063" y1="288.0014628645733" y2="297.47351097656366"/>
<line stroke="blue" stroke-width="1" x1="863.9769598829708" x2="863.9769598829708" y1="297.47351097656366" y2="306.83584424555806"/>
<line stroke="blue" stroke-width="1" x1="870.6329936913965" x2="870.6329936913965" y1="306.83584424555806" y2="319.0507634324492"/>
<line stroke="blue" stroke-width="1" x1="869.2524152503631" x2="869.2524152503631" y1="319.0507634324492" y2="329.24510092749676"/>
<line stroke="blue" stroke-width="1" x1="873.5495799343743" x2="873.5495799343743" y1="329.24510092749676" y2="338.4520048355801"/>
<line stroke="blue" stroke-width="1" x1="881.6136208945823" x2="881.6136208945823" y1="338.4520048355801" y2="350.33777949348314"/>
<line stroke="blue" stroke-width="1" x1="880.159899224885" x2="880.159899224885" y1="350.33777949348314" y2="360.90697603543384"/>
<line stroke="blue" stroke-width="1" x1="883.5062019362638" x2="883.5062019362638" y1="360.90697603543384" y2="370.6167396405823"/>
<line stroke="blue" stroke-width="1" x1="891.4788138606418" x2="891.4788138606418" y1="370.6167396405823" y2="382.7402297916434"/>
<line stroke="blue" stroke-width="1" x1="887.1633633694647" x2="887.1633633694647" y1="382.7402297916434" y2="393.4922844052541"/>
<line stroke="blue" stroke-width="1" x1="890.0525209016935" x2="890.0525209016935" y1="393.4922844052541" y2="404.4820545120229"/>
<line stroke="blue" stroke-width="1" x1="891.5245283785569" x2="891.5245283785569" y1="404.4820545120229" y2="415.2249662220506"/>
<line stroke="blue" stroke-width="1" x1="895.6479778944909" x2="895.6479778944909" y1="415.2249662220506" y2="426.34273697898146"/>
<line stroke="blue" stroke-width="1" x1="896.6171256742891" x2="896.6171256742891" y1="426.34273697898146" y2="437.50622225382733"/>
<line stroke="blue" stroke-width="1" x1="896.7725550352002" x2="896.7725550352002" y1="437.50622225382733" y2="448.7428507573372"/>
<line stroke="blue" stroke-width="1" x1="892.365675508193" x2="892.365675508193" y1="448.7428507573372" y2="459.814906996353"/>
<line stroke="red" stroke-width="1" x1="900" x2="894.1485417068785" y1="470.8595345246198" y2="470.8595345246198"/>
<line stroke="red" stroke-width="1" x1="894.1485417068785" x2="896.3428385667991" y1="482.07787722096367" y2="482.07787722096367"/>
<line stroke="red" stroke-width="1" x1="896.3428385667991" x2="893.9108262137204" y1="493.0585044241494" y2="493.0585044241494"/>
<line stroke="red" stroke-width="1" x1="893.9108262137204" x2="890.2079502626045" y1="503.81970194134317" y2="503.81970194134317"/>
<line stroke="red" stroke-width="1" x1="890.2079502626045" x2="890.9576683564106" y1="515.0563304448531" y2="515.0563304448531"/>
<line stroke="red" stroke-width="1" x1="890.9576683564106" x2="890.7748102847506" y1="526.2563873340309" y2="526.2563873340309"/>
<line stroke="red" stroke-width="1" x1="890.7748102847506" x2="884.7496368235521" y1="536.4507248290785" y2="536.4507248290785"/>
<line stroke="red" stroke-width="1" x1="884.7496368235521" x2="882.0890518808984" y1="547.1479220211912" y2="547.1479220211912"/>
<line stroke="red" stroke-width="1" x1="882.0890518808984" x2="888.342797931672" y1="559.9479870373945" y2="559.9479870373945"/>
<line stroke="red" stroke-width="1" x1="888.342797931672" x2="878.0021739792963" y1="568.8257464164897" y2="568.8257464164897"/>
<line stroke="red" stroke-width="1" x1="878.0021739792963" x2="876.393022948688" y1="579.8520881375905" y2="579.8520881375905"/>
<line stroke="red" stroke-width="1" x1="876.393022948688" x2="871.0992817741296" y1="589.7721385251481" y2="589.7721385251481"/>
<line stroke="red" stroke-width="1" x1="871.0992817741296" x2="875.1221593506507" y1="602.8373477452584" y2="602.8373477452584"/>
<line stroke="red" stroke-width="1" x1="875.1221593506507" x2="870.8432804738055" y1="613.205400408383" y2="613.205400408383"/>
<line stroke="red" stroke-width="1" x1="870.8432804738055" x2="865.0923941200971" y1="622.9608785314465" y2="622.9608785314465"/>
<line stroke="red" stroke-width="1" x1="865.0923941200971" x2="860.539228135762" y1="633.146073122911" y2="633.146073122911"/>
<line stroke="red" stroke-width="1" x1="860.539228135762" x2="851.7620406960797" y1="641.3564005404472" y2="641.3564005404472"/>
<line stroke="red" stroke-width="1" x1="851.7620406960797" x2="850.9757509879415" y1="653.2878897162652" y2="653.2878897162652"/>
<line stroke="red" stroke-width="1" x1="850.9757509879415" x2="848.7723112244379" y1="664.7348050021841" y2="664.7348050021841"/>
<line stroke="red" stroke-width="1" x1="848.7723112244379" x2="837.252252709855" y1="671.1348375102857" y2="671.1348375102857"/>
<line stroke="red" stroke-width="1" x1="837.252252709855" x2="837.6271117567582" y1="684.2274754411451" y2="684.2274754411451"/>
<line stroke="red" stroke-width="1" x1="837.6271117567582" x2="831.8030821743856" y1="693.8275242032976" y2="693.8275242032976"/>
<line stroke="red" stroke-width="1" x1="831.8030821743856" x2="819.6247346018265" y1="699.1852657029369" y2="699.1852657029369"/>
<line stroke="red" stroke-width="1" x1="819.6247346018265" x2="814.0475634161951" y1="708.7670286579233" y2="708.7670286579233"/>
<line stroke="red" stroke-width="1" x1="814.0475634161951" x2="807.7481028475065" y1="717.8642177230106" y2="717.8642177230106"/>
<line stroke="red" stroke-width="1" x1="807.7481028475065" x2="805.3069475908449" y1="730.0242794884037" y2="730.0242794884037"/>
<line stroke="red" stroke-width="1" x1="805.3069475908449" x2="795.6611843107775" y1="736.5888842609994" y2="736.5888842609994"/>
<line stroke="red" stroke-width="1" x1="795.6611843107775" x2="787.1217123642532" y1="743.9032071274013" y2="743.9032071274013"/>
<line stroke="red" stroke-width="1" x1="787.1217123642532" x2="779.3868159330333" y1="751.8301045338643" y2="751.8301045338643"/>
<line stroke="red" stroke-width="1" x1="779.3868159330333" x2="770.3353413858609" y1="758.4769954387069" y2="758.4769954387069"/>
<line stroke="red" stroke-width="1" x1="770.3353413858609" x2="765.1970295722136" y1="768.9364771376617" y2="768.9364771376617"/>
<line stroke="red" stroke-width="1" x1="765.1970295722136" x2="756.9409876367625" y1="776.3696577506425" y2="776.3696577506425"/>
<line stroke="red" stroke-width="1" x1="756.9409876367625" x2="749.3615205664537" y1="784.5342706502636" y2="784.5342706502636"/>
<line stroke="red" stroke-width="1" x1="749.3615205664537" x2="743.9032071274013" y1="795.2863252638743" y2="795.2863252638743"/>
<line stroke="red" stroke-width="1" x1="743.9032071274013" x2="735.080305169804" y1="802.2440748905391" y2="802.2440748905391"/>
<line stroke="red" stroke-width="1" x1="735.080305169804" x2="721.5488078669606" y1="803.0212216950943" y2="803.0212216950943"/>
<line stroke="red" stroke-width="1" x1="721.5488078669606" x2="717.0596422077065" y1="815.6292857360545" y2="815.6292857360545"/>
<line stroke="red" stroke-width="1" x1="717.0596422077065" x2="704.7258652742363" y1="817.476152259821" y2="817.476152259821"/>
<line stroke="red" stroke-width="1" x1="704.7258652742363" x2="695.939534930971" y1="824.2876154291577" y2="824.2876154291577"/>
<line stroke="red" stroke-width="1" x1="695.939534930971" x2="687.921208488678" y1="832.4247996180297" y2="832.4247996180297"/>
<line stroke="red" stroke-width="1" x1="687.921208488678" x2="675.2582870262198" y1="832.8453731828479" y2="832.8453731828479"/>
<line stroke="red" stroke-width="1" x1="675.2582870262198" x2="668.227394170891" y1="842.9208529313164" y2="842.9208529313164"/>
<line stroke="red" stroke-width="1" x1="668.227394170891" x2="655.9850462732509" y1="843.4694271462965" y2="843.4694271462965"/>
<line stroke="red" stroke-width="1" x1="655.9850462732509" x2="647.9210053130429" y1="852.1003281286507" y2="852.1003281286507"/>
<line stroke="red" stroke-width="1" x1="647.9210053130429" x2="638.8969594766196" y1="859.1037922732305" y2="859.1037922732305"/>
<line stroke="red" stroke-width="1" x1="638.8969594766196" x2="626.4077531822384" y1="858.2535022400114" y2="858.2535022400114"/>
<line stroke="red" stroke-width="1" x1="626.4077531822384" x2="618.1699970539532" y1="867.4421203409287" y2="867.4421203409287"/>
<line stroke="red" stroke-width="1" x1="618.1699970539532" x2="607.2167985615165" y1="870.0021333441694" y2="870.0021333441694"/>
<line stroke="red" stroke-width="1" x1="607.2167985615165" x2="595.6601684326015" y1="870.5324217519835" y2="870.5324217519835"/>
<line stroke="red" stroke-width="1" x1="595.6601684326015" x2="586.8921238965023" y1="879.6113250099048" y2="879.6113250099048"/>
<line stroke="red" stroke-width="1" x1="586.8921238965023" x2="574.2749169519591" y1="876.0638784196999" y2="876.0638784196999"/>
<line stroke="red" stroke-width="1" x1="574.2749169519591" x2="564.8942978757988" y1="883.9176325974988" y2="883.9176325974988"/>
<line stroke="red" stroke-width="1" x1="564.8942978757988" x2="552.7982364354866" y1="880.9736176437722" y2="880.9736176437722"/>
<line stroke="red" stroke-width="1" x1="552.7982364354866" x2="543.7467618883144" y1="891.8811016182939" y2="891.8811016182939"/>
<line stroke="red" stroke-width="1" x1="543.7467618883144" x2="531.2026981724351" y1="885.2250678098682" y2="885.2250678098682"/>
<line stroke="red" stroke-width="1" x1="531.2026981724351" x2="520.8529313164765" y1="890.4913802736776" y2="890.4913802736776"/>
<line stroke="red" stroke-width="1" x1="520.8529313164765" x2="509.7443034631287" y1="891.1039548137387" y2="891.1039548137387"/>
<line stroke="red" stroke-width="1" x1="509.7443034631287" x2="499.23910724625904" y1="897.5131302254233" y2="897.5131302254233"/>
<line stroke="red" stroke-width="1" x1="499.23910724625904" x2="487.66419131017807" y1="892.7222487479302" y2="892.7222487479302"/>
<line stroke="red" stroke-width="1" x1="487.66419131017807" x2="476.7749931428223" y1="896.7268405172852" y2="896.7268405172852"/>
<line stroke="red" stroke-width="1" x1="476.7749931428223" x2="465.61150786797646" y1="896.196552109471" y2="896.196552109471"/>
<line stroke="red" stroke-width="1" x1="465.61150786797646" x2="454.51202291821164" y1="893.0331074697522" y2="893.0331074697522"/>
<line stroke="red" stroke-width="1" x1="454.51202291821164" x2="443.4856811971108" y1="892.146245822201" y2="892.146245822201"/>
<line stroke="red" stroke-width="1" x1="443.4856811971108" x2="432.42276786167804" y1="892.548533579853" y2="892.548533579853"/>
<line stroke="red" stroke-width="1" x1="432.42276786167804" x2="420.82042321484806" y1="898.7839938234606" y2="898.7839938234606"/>
<line stroke="red" stroke-width="1" x1="420.82042321484806" x2="409.8580818188283" y1="895.7576927374869" y2="895.7576927374869"/>
<line stroke="red" stroke-width="1" x1="409.8580818188283" x2="398.85002590489347" y1="893.7462539492263" y2="893.7462539492263"/>
<line stroke="red" stroke-width="1" x1="398.85002590489347" x2="388.05225677336773" y1="890.6376667310055" y2="890.6376667310055"/>
<line stroke="red" stroke-width="1" x1="388.05225677336773" x2="376.4681979337038" y1="892.118817111452" y2="892.118817111452"/>
<line stroke="red" stroke-width="1" x1="376.4681979337038" x2="366.52986173898023" y1="884.9233519916291" y2="884.9233519916291"/>
<line stroke="red" stroke-width="1" x1="366.52986173898023" x2="355.8052358361185" y1="882.1347663988134" y2="882.1347663988134"/>
<line stroke="red" stroke-width="1" x1="355.8052358361185" x2="343.72746020297245" y1="884.511921330394" y2="884.511921330394"/>
<line stroke="red" stroke-width="1" x1="343.72746020297245" x2="334.017696597824" y1="877.8101730040534" y2="877.8101730040534"/>
<line stroke="red" stroke-width="1" x1="334.017696597824" x2="323.8873594278574" y1="873.0284344301431" y2="873.0284344301431"/>
<line stroke="red" stroke-width="1" x1="323.8873594278574" x2="313.50102095756677" y1="869.2158436360312" y2="869.2158436360312"/>
<line stroke="red" stroke-width="1" x1="313.50102095756677" x2="301.1215295061816" y1="870.7152798236435" y2="870.7152798236435"/>
<line stroke="red" stroke-width="1" x1="301.1215295061816" x2="291.53976655119516" y1="864.5529628086999" y2="864.5529628086999"/>
<line stroke="red" stroke-width="1" x1="291.53976655119516" x2="283.28372461574406" y1="855.6112031045237" y2="855.6112031045237"/>
<line stroke="red" stroke-width="1" x1="283.28372461574406" x2="271.288235114845" y1="855.2820585755356" y2="855.2820585755356"/>
<line stroke="red" stroke-width="1" x1="271.288235114845" x2="260.0973211292502" y1="852.776902993793" y2="852.776902993793"/>
<line stroke="red" stroke-width="1" x1="260.0973211292502" x2="253.39557280290947" y1="841.5219886831171" y2="841.5219886831171"/>
<line stroke="red" stroke-width="1" x1="253.39557280290947" x2="240.12007680039008" y1="842.6282800166604" y2="842.6282800166604"/>
<line stroke="red" stroke-width="1" x1="240.12007680039008" x2="233.53718622062843" y1="831.7939392708026" y2="831.7939392708026"/>
<line stroke="red" stroke-width="1" x1="233.53718622062843" x2="220.83769314383818" y1="831.1996505379075" y2="831.1996505379075"/>
<line stroke="red" stroke-width="1" x1="220.83769314383818" x2="214.05365868525047" y1="821.179028210937" y2="821.179028210937"/>
<line stroke="red" stroke-width="1" x1="214.05365868525047" x2="205.76104513546736" y1="813.700133080041" y2="813.700133080041"/>
<line stroke="red" stroke-width="1" x1="205.76104513546736" x2="192.576978168778" y1="812.9047004683198" y2="812.9047004683198"/>
<line stroke="red" stroke-width="1" x1="192.576978168778" x2="188.06038379877484" y1="800.4612086918537" y2="800.4612086918537"/>
<line stroke="red" stroke-width="1" x1="188.06038379877484" x2="175.80889299755174" y1="797.9469102065281" y2="797.9469102065281"/>
<line stroke="red" stroke-width="1" x1="175.80889299755174" x2="170.2682934262523" y1="787.2588559179983" y2="787.2588559179983"/>
<line stroke="red" stroke-width="1" x1="170.2682934262523" x2="158.8762355618314" y1="783.2908357629752" y2="783.2908357629752"/>
<line stroke="red" stroke-width="1" x1="158.8762355618314" x2="155.01793024980444" y1="771.1490598047482" y2="771.1490598047482"/>
<line stroke="red" stroke-width="1" x1="155.01793024980444" x2="145.23502341599195" y1="765.2976015116267" y2="765.2976015116267"/>
<line stroke="red" stroke-width="1" x1="145.23502341599195" x2="137.10698213070287" y1="757.6998486341517" y2="757.6998486341517"/>
<line stroke="red" stroke-width="1" x1="137.10698213070287" x2="128.17436533010962" y1="750.760384814653" y2="750.760384814653"/>
<line stroke="red" stroke-width="1" x1="128.17436533010962" x2="120.15603888781656" y1="742.915773540437" y2="742.915773540437"/>
<line stroke="red" stroke-width="1" x1="120.15603888781656" x2="114.75258287026219" y1="732.8951512134664" y2="732.8951512134664"/>
<line stroke="red" stroke-width="1" x1="114.75258287026219" x2="105.7011083230899" y1="725.8002580330567" y2="725.8002580330567"/>
<line stroke="red" stroke-width="1" x1="105.7011083230899" x2="103.17766693418125" y1="713.7864827249916" y2="713.7864827249916"/>
<line stroke="red" stroke-width="1" x1="103.17766693418125" x2="98.82564482867214" y1="703.33614392962" y2="703.33614392962"/>
<line stroke="red" stroke-width="1" x1="98.82564482867214" x2="90.67931773621707" y1="695.5006755589869" y2="695.5006755589869"/>
<line stroke="red" stroke-width="1" x1="90.67931773621707" x2="79.54326117212024" y1="689.3475014476264" y2="689.3475014476264"/>
<line stroke="red" stroke-width="1" x1="79.54326117212024" x2="75.31009681319016" y1="678.8148765200077" y2="678.8148765200077"/>
<line stroke="red" stroke-width="1" x1="75.31009681319016" x2="74.69752227312901" y1="666.3988134542906" y2="666.3988134542906"/>
<line stroke="red" stroke-width="1" x1="74.69752227312901" x2="63.99118217743328" y1="659.4867783455408" y2="659.4867783455408"/>
<line stroke="red" stroke-width="1" x1="63.99118217743328" x2="62.482603086237894" y1="647.7838617592978" y2="647.7838617592978"/>
<line stroke="red" stroke-width="1" x1="62.482603086237894" x2="60.068876540325284" y1="636.693519713116" y2="636.693519713116"/>
<line stroke="red" stroke-width="1" x1="60.068876540325284" x2="52.43455204851834" y1="627.9254751770168" y2="627.9254751770168"/>
<line stroke="orange" stroke-width="1" x1="52.43455204851834" x2="47.26881152412203" y1="617.9962818858762" y2="617.9962818858762"/>
<line stroke="red" stroke-width="1" x1="47.26881152412203" x2="48.94196287981145" y1="605.5253613986611" y2="605.5253613986611"/>
<line stroke="red" stroke-width="1" x1="48.94196287981145" x2="40.813921594522384" y1="596.6476020195657" y2="596.6476020195657"/>
<line stroke="red" stroke-width="1" x1="40.813921594522384" x2="34.13045907534768" y1="587.0566961609964" y2="587.0566961609964"/>
<line stroke="red" stroke-width="1" x1="34.13045907534768" x2="38.55562440952081" y1="574.183487916129" y2="574.183487916129"/>
<line stroke="red" stroke-width="1" x1="38.55562440952081" x2="31.268730253867954" y1="564.6657252862236" y2="564.6657252862236"/>
<line stroke="red" stroke-width="1" x1="31.268730253867954" x2="29.851580198502596" y1="553.5753832400418" y2="553.5753832400418"/>
<line stroke="red" stroke-width="1" x1="29.851580198502596" x2="23.37840446173695" y1="543.5547609130713" y2="543.5547609130713"/>
<line stroke="red" stroke-width="1" x1="23.37840446173695" x2="25.03327001026037" y1="531.8975588447433" y2="531.8975588447433"/>
<line stroke="red" stroke-width="1" x1="25.03327001026037" x2="21.76925343112854" y1="521.1455042311326" y2="521.1455042311326"/>
<line stroke="red" stroke-width="1" x1="21.76925343112854" x2="23.497262208315977" y1="509.7077318487967" y2="509.7077318487967"/>
<line stroke="red" stroke-width="1" x1="23.497262208315977" x2="18.861810091733798" y1="499.03796336743295" y2="499.03796336743295"/>
<line stroke="red" stroke-width="1" x1="18.861810091733798" x2="20.416103700844193" y1="487.7464774424251" y2="487.7464774424251"/>
<line stroke="red" stroke-width="1" x1="20.416103700844193" x2="15.963509655922062" y1="476.8481363714863" y2="476.8481363714863"/>
<line stroke="red" stroke-width="1" x1="15.963509655922062" x2="19.949815618111074" y1="465.57493625364447" y2="465.57493625364447"/>
<line stroke="orange" stroke-width="1" x1="19.949815618111074" x2="865.2295376738422" y1="459.6046202139439" y2="459.6046202139439"/>
<line stroke="red" stroke-width="1" x1="865.2295376738422" x2="15.716651259180999" y1="443.2845373182848" y2="443.2845373182848"/>
<line stroke="red" stroke-width="1" x1="15.716651259180999" x2="21.69611020246452" y1="432.42276786167804" y2="432.42276786167804"/>
<line stroke="red" stroke-width="1" x1="21.69611020246452" x2="22.47325700701972" y1="421.3964261405772" y2="421.3964261405772"/>
<line stroke="red" stroke-width="1" x1="22.47325700701972" x2="22.784115728841797" y1="410.3152269979784" y2="410.3152269979784"/>
<line stroke="red" stroke-width="1" x1="22.784115728841797" x2="24.786411613519306" y1="399.41688592703963" y2="399.41688592703963"/>
<line stroke="red" stroke-width="1" x1="24.786411613519306" x2="25.682416164653535" y1="388.37225839877283" y2="388.37225839877283"/>
<line stroke="red" stroke-width="1" x1="25.682416164653535" x2="27.620711724250025" y1="377.47391732783404" y2="377.47391732783404"/>
<line stroke="red" stroke-width="1" x1="27.620711724250025" x2="25.490415189410484" y1="365.71614332009307" y2="365.71614332009307"/>
<line stroke="red" stroke-width="1" x1="25.490415189410484" x2="31.01272895354389" y1="355.54009163221144" y2="355.54009163221144"/>
<line stroke="red" stroke-width="1" x1="31.01272895354389" x2="30.45501183498075" y1="343.9103182746325" y2="343.9103182746325"/>
<line stroke="red" stroke-width="1" x1="30.45501183498075" x2="36.032183020612166" y1="333.88969594766195" y2="333.88969594766195"/>
<line stroke="red" stroke-width="1" x1="36.032183020612166" x2="39.66191574306409" y1="323.3844997307923" y2="323.3844997307923"/>
<line stroke="red" stroke-width="1" x1="39.66191574306409" x2="44.34308237756128" y1="313.2541625608257" y2="313.2541625608257"/>
<line stroke="red" stroke-width="1" x1="44.34308237756128" x2="43.840222680496154" y1="301.22210144559466" y2="301.22210144559466"/>
<line stroke="red" stroke-width="1" x1="43.840222680496154" x2="54.45513374036185" y1="293.4597763036257" y2="293.4597763036257"/>
<line stroke="red" stroke-width="1" x1="54.45513374036185" x2="58.953442303199" y1="283.4117252659061" y2="283.4117252659061"/>
<line stroke="red" stroke-width="1" x1="58.953442303199" x2="62.5100317969869" y1="272.92481485620243" y2="272.92481485620243"/>
<line stroke="red" stroke-width="1" x1="62.5100317969869" x2="62.67460406148095" y1="260.6824669585623" y2="260.6824669585623"/>
<line stroke="red" stroke-width="1" x1="62.67460406148095" x2="70.21749951745787" y1="252.04242307262513" y2="252.04242307262513"/>
<line stroke="red" stroke-width="1" x1="70.21749951745787" x2="77.18439204770564" y1="243.23780692219387" y2="243.23780692219387"/>
<line stroke="red" stroke-width="1" x1="77.18439204770564" x2="81.95698771803285" y1="233.22632749880634" y2="233.22632749880634"/>
<line stroke="red" stroke-width="1" x1="81.95698771803285" x2="82.40498999359997" y1="220.41711957902007" y2="220.41711957902007"/>
<line stroke="red" stroke-width="1" x1="82.40498999359997" x2="90.98103355445615" y1="212.6365086298851" y2="212.6365086298851"/>
<line stroke="red" stroke-width="1" x1="90.98103355445615" x2="101.96166075764194" y1="206.7301929152656" y2="206.7301929152656"/>
<line stroke="red" stroke-width="1" x1="101.96166075764194" x2="107.19140160711927" y1="196.90157156353808" y2="196.90157156353808"/>
<line stroke="red" stroke-width="1" x1="107.19140160711927" x2="113.80172089762995" y1="188.05124089519185" y2="188.05124089519185"/>
<line stroke="red" stroke-width="1" x1="113.80172089762995" x2="119.24174852951634" y1="178.20433373629834" y2="178.20433373629834"/>
<line stroke="red" stroke-width="1" x1="119.24174852951634" x2="124.63606164348771" y1="168.1837114093278" y2="168.1837114093278"/>
<line stroke="red" stroke-width="1" x1="124.63606164348771" x2="134.14468136981012" y1="161.76539309406016" y2="161.76539309406016"/>
<line stroke="red" stroke-width="1" x1="134.14468136981012" x2="141.8887207046131" y1="153.82935278401413" y2="153.82935278401413"/>
<line stroke="red" stroke-width="1" x1="141.8887207046131" x2="150.1264768328982" y1="146.39617217103324" y2="146.39617217103324"/>
<line stroke="red" stroke-width="1" x1="150.1264768328982" x2="157.212227109725" y1="137.77441409226205" y2="137.77441409226205"/>
<line stroke="red" stroke-width="1" x1="157.212227109725" x2="165.21226774485203" y1="130.0760892753741" y2="130.0760892753741"/>
<line stroke="red" stroke-width="1" x1="165.21226774485203" x2="175.6808923473897" y1="125.24863618354887" y2="125.24863618354887"/>
<line stroke="red" stroke-width="1" x1="175.6808923473897" x2="180.0054857421498" y1="113.04285990024076" y2="113.04285990024076"/>
<line stroke="red" stroke-width="1" x1="180.0054857421498" x2="189.73353515446428" y1="107.32854516086431" y2="107.32854516086431"/>
<line stroke="red" stroke-width="1" x1="189.73353515446428" x2="200.14730233550392" y1="102.70223594786513" y2="102.70223594786513"/>
<line stroke="red" stroke-width="1" x1="200.14730233550392" x2="207.4981968162378" y1="93.81533366518687" y2="93.81533366518687"/>
<line stroke="red" stroke-width="1" x1="207.4981968162378" x2="215.8822394018509" y1="86.20843788412893" y2="86.20843788412893"/>
<line stroke="red" stroke-width="1" x1="215.8822394018509" x2="225.94857624673648" y1="81.18898381706066" y2="81.18898381706066"/>
<line stroke="red" stroke-width="1" x1="225.94857624673648" x2="238.13606672287858" y1="79.90897731544032" y2="79.90897731544032"/>
<line stroke="red" stroke-width="1" x1="238.13606672287858" x2="246.69382447656875" y1="72.53979702754046" y2="72.53979702754046"/>
<line stroke="red" stroke-width="1" x1="246.69382447656875" x2="258.2961691233987" y1="70.81178825035302" y2="70.81178825035302"/>
<line stroke="red" stroke-width="1" x1="258.2961691233987" x2="267.311072056239" y1="64.17404024909332" y2="64.17404024909332"/>
<line stroke="red" stroke-width="1" x1="267.311072056239" x2="276.2162601460833" y1="57.024289647185505" y2="57.024289647185505"/>
<line stroke="red" stroke-width="1" x1="276.2162601460833" x2="285.8803092333167" y1="51.30997490780906" y2="51.30997490780906"/>
<line stroke="red" stroke-width="1" x1="285.8803092333167" x2="295.83693123520624" y1="46.13509147982974" y2="46.13509147982974"/>
<line stroke="red" stroke-width="1" x1="295.83693123520624" x2="308.3809949510855" y1="47.899671871349184" y2="47.899671871349184"/>
<line stroke="red" stroke-width="1" x1="308.3809949510855" x2="316.73760882594956" y1="38.1259079411197" y2="38.1259079411197"/>
<line stroke="red" stroke-width="1" x1="316.73760882594956" x2="328.43138250860954" y1="38.052764712455684" y2="38.052764712455684"/>
<line stroke="red" stroke-width="1" x1="328.43138250860954" x2="338.11371740300905" y1="31.460731229111005" y2="31.460731229111005"/>
<line stroke="red" stroke-width="1" x1="338.11371740300905" x2="350.2189217469041" y1="33.67331389619757" y2="33.67331389619757"/>
<line stroke="red" stroke-width="1" x1="350.2189217469041" x2="359.7001127624775" y1="25.408129057163464" y2="25.408129057163464"/>
<line stroke="red" stroke-width="1" x1="359.7001127624775" x2="370.5984538334163" y1="22.747544114509786" y2="22.747544114509786"/>
<line stroke="red" stroke-width="1" x1="370.5984538334163" x2="382.0453691193352" y1="23.085831547080872" y2="23.085831547080872"/>
<line stroke="red" stroke-width="1" x1="382.0453691193352" x2="393.062567936853" y1="21.26639373406341" y2="21.26639373406341"/>
<line stroke="red" stroke-width="1" x1="393.062567936853" x2="404.83862775176" y1="25.691559068236536" y2="25.691559068236536"/>
<line stroke="red" stroke-width="1" x1="404.83862775176" x2="415.64553978686877" y1="23.040117029165863" y2="23.040117029165863"/>
<line stroke="red" stroke-width="1" x1="415.64553978686877" x2="426.75416764021656" y1="23.606977051312008" y2="23.606977051312008"/>
<line stroke="red" stroke-width="1" x1="426.75416764021656" x2="437.62508000040634" y1="20.214959822018145" y2="20.214959822018145"/>
<line stroke="red" stroke-width="1" x1="437.62508000040634" x2="448.61485010717513" y1="15.314363501528897" y2="15.314363501528897"/>
<line stroke="red" stroke-width="1" x1="448.61485010717513" x2="459.814906996353" y1="14.5372166969737" y2="14.5372166969737"/>
<line stroke="red" stroke-width="1" x1="459.814906996353" x2="470.77724839237277" y1="22.509828621351726" y2="22.509828621351726"/>
<line stroke="red" stroke-width="1" x1="470.77724839237277" x2="482.14187754604467" y1="16.731513556894257" y2="16.731513556894257"/>
<line stroke="red" stroke-width="1" x1="482.14187754604467" x2="493.04936152056644" y1="20.452675315176204" y2="20.452675315176204"/>
<line stroke="red" stroke-width="1" x1="493.04936152056644" x2="504.02998872375224" y1="22.116683767282627" y2="22.116683767282627"/>
<line stroke="red" stroke-width="1" x1="504.02998872375224" x2="515.5774759490841" y1="19.41952721029694" y2="19.41952721029694"/>
<line stroke="red" stroke-width="1" x1="515.5774759490841" x2="525.9912431301238" y1="25.179556467588405" y2="25.179556467588405"/>
<line stroke="red" stroke-width="1" x1="525.9912431301238" x2="536.7067261294026" y1="28.169285939230168" y2="28.169285939230168"/>
<line stroke="red" stroke-width="1" x1="536.7067261294026" x2="548.4279285228115" y1="26.13956134380365" y2="26.13956134380365"/>
<line stroke="red" stroke-width="1" x1="548.4279285228115" x2="557.8725479240529" y1="34.651604579578816" y2="34.651604579578816"/>
<line stroke="red" stroke-width="1" x1="557.8725479240529" x2="568.6977457663277" y1="36.76361530725235" y2="36.76361530725235"/>
<line stroke="red" stroke-width="1" x1="568.6977457663277" x2="579.2760852118614" y1="39.844773814724135" y2="39.844773814724135"/>
<line stroke="red" stroke-width="1" x1="579.2760852118614" x2="590.1927120899661" y1="41.86535550656765" y2="41.86535550656765"/>
<line stroke="red" stroke-width="1" x1="590.1927120899661" x2="601.9047715797922" y1="41.81964098865264" y2="41.81964098865264"/>
<line stroke="red" stroke-width="1" x1="601.9047715797922" x2="613.10482846897" y1="43.70307912675112" y2="43.70307912675112"/>
<line stroke="red" stroke-width="1" x1="613.10482846897" x2="621.0225829718499" y1="53.952274043296725" y2="53.952274043296725"/>
<line stroke="red" stroke-width="1" x1="621.0225829718499" x2="631.6649227424647" y1="57.13400449018154" y2="57.13400449018154"/>
<line stroke="red" stroke-width="1" x1="631.6649227424647" x2="641.5209728049413" y1="62.15345855724981" y2="62.15345855724981"/>
<line stroke="red" stroke-width="1" x1="641.5209728049413" x2="652.7850300192001" y1="64.30204089925536" y2="64.30204089925536"/>
<line stroke="red" stroke-width="1" x1="652.7850300192001" x2="661.2147871227282" y1="72.13750926988835" y2="72.13750926988835"/>
<line stroke="red" stroke-width="1" x1="661.2147871227282" x2="674.4537115109156" y1="71.12264697217509" y2="71.12264697217509"/>
<line stroke="red" stroke-width="1" x1="674.4537115109156" x2="680.7806007903532" y1="82.42327580076596" y2="82.42327580076596"/>
<line stroke="red" stroke-width="1" x1="680.7806007903532" x2="690.6183650456637" y1="87.55244471083027" y2="87.55244471083027"/>
<line stroke="red" stroke-width="1" x1="690.6183650456637" x2="701.4435628879385" y1="91.27360646911222" y2="91.27360646911222"/>
<line stroke="red" stroke-width="1" x1="701.4435628879385" x2="710.8973251927629" y1="97.21649379806374" y2="97.21649379806374"/>
<line stroke="red" stroke-width="1" x1="710.8973251927629" x2="717.3430722187795" y1="107.23711612503428" y2="107.23711612503428"/>
<line stroke="red" stroke-width="1" x1="717.3430722187795" x2="726.6139764519438" y1="113.31714700773082" y2="113.31714700773082"/>
<line stroke="red" stroke-width="1" x1="726.6139764519438" x2="737.2837449333076" y1="117.77888395623596" y2="117.77888395623596"/>
<line stroke="red" stroke-width="1" x1="737.2837449333076" x2="743.4277761410851" y1="127.69893434379348" y2="127.69893434379348"/>
<line stroke="red" stroke-width="1" x1="743.4277761410851" x2="751.6198177514552" y1="135.1321149567744" y2="135.1321149567744"/>
<line stroke="red" stroke-width="1" x1="751.6198177514552" x2="759.6015725794163" y1="142.77558235216432" y2="142.77558235216432"/>
<line stroke="red" stroke-width="1" x1="759.6015725794163" x2="769.4667655454757" y1="148.5630403202048" y2="148.5630403202048"/>
<line stroke="red" stroke-width="1" x1="769.4667655454757" x2="774.7513638164511" y1="158.8579497546654" y2="158.8579497546654"/>
<line stroke="red" stroke-width="1" x1="774.7513638164511" x2="784.5068419395146" y1="164.94712354094497" y2="164.94712354094497"/>
<line stroke="red" stroke-width="1" x1="784.5068419395146" x2="790.6965876652072" y1="174.27288519560733" y2="174.27288519560733"/>
<line stroke="red" stroke-width="1" x1="790.6965876652072" x2="797.727480520536" y1="182.83064294929753" y2="182.83064294929753"/>
<line stroke="red" stroke-width="1" x1="797.727480520536" x2="804.2372278716336" y1="191.7998313642228" y2="191.7998313642228"/>
<line stroke="red" stroke-width="1" x1="804.2372278716336" x2="810.6098316689862" y1="200.8513059113951" y2="200.8513059113951"/>
<line stroke="red" stroke-width="1" x1="810.6098316689862" x2="820.2190233347217" y1="207.67191198431485" y2="207.67191198431485"/>
<line stroke="red" stroke-width="1" x1="820.2190233347217" x2="826.9207716610624" y1="216.62281459207412" y2="216.62281459207412"/>
<line stroke="red" stroke-width="1" x1="826.9207716610624" x2="834.8202403567764" y1="224.88799943110823" y2="224.88799943110823"/>
<line stroke="red" stroke-width="1" x1="834.8202403567764" x2="839.2545485945325" y1="235.30176661214787" y2="235.30176661214787"/>
<line stroke="red" stroke-width="1" x1="839.2545485945325" x2="844.5117181547589" y1="245.18524538537338" y2="245.18524538537338"/>
<line stroke="red" stroke-width="1" x1="844.5117181547589" x2="848.982598006847" y1="255.461869012668" y2="255.461869012668"/>
<line stroke="red" stroke-width="1" x1="848.982598006847" x2="851.8351839247438" y1="266.4790678301858" y2="266.4790678301858"/>
<line stroke="red" stroke-width="1" x1="851.8351839247438" x2="855.8580615012647" y1="276.84712049331046" y2="276.84712049331046"/>
<line stroke="red" stroke-width="1" x1="855.8580615012647" x2="857.9335006146063" y1="288.0014628645733" y2="288.0014628645733"/>
<line stroke="red" stroke-width="1" x1="857.9335006146063" x2="863.9769598829708" y1="297.47351097656366" y2="297.47351097656366"/>
<line stroke="red" stroke-width="1" x1="863.9769598829708" x2="870.6329936913965" y1="306.83584424555806" y2="306.83584424555806"/>
<line stroke="red" stroke-width="1" x1="870.6329936913965" x2="869.2524152503631" y1="319.0507634324492" y2="319.0507634324492"/>
<line stroke="red" stroke-width="1" x1="869.2524152503631" x2="873.5495799343743" y1="329.24510092749676" y2="329.24510092749676"/>
<line stroke="red" stroke-width="1" x1="873.5495799343743" x2="881.6136208945823" y1="338.4520048355801" y2="338.4520048355801"/>
<line stroke="red" stroke-width="1" x1="881.6136208945823" x2="880.159899224885" y1="350.33777949348314" y2="350.33777949348314"/>
<line stroke="red" stroke-width="1" x1="880.159899224885" x2="883.5062019362638" y1="360.90697603543384" y2="360.90697603543384"/>
<line stroke="red" stroke-width="1" x1="883.5062019362638" x2="891.4788138606418" y1="370.6167396405823" y2="370.6167396405823"/>
<line stroke="red" stroke-width="1" x1="891.4788138606418" x2="887.1633633694647" y1="382.7402297916434" y2="382.7402297916434"/>
<line stroke="red" stroke-width="1" x1="887.1633633694647" x2="890.0525209016935" y1="393.4922844052541" y2="393.4922844052541"/>
<line stroke="red" stroke-width="1" x1="890.0525209016935" x2="891.5245283785569" y1="404.4820545120229" y2="404.4820545120229"/>
<line stroke="red" stroke-width="1" x1="891.5245283785569" x2="895.6479778944909" y1="415.2249662220506" y2="415.2249662220506"/>
<line stroke="red" stroke-width="1" x1="895.6479778944909" x2="896.6171256742891" y1="426.34273697898146" y2="426.34273697898146"/>
<line stroke="red" stroke-width="1" x1="896.6171256742891" x2="896.7725550352002" y1="437.50622225382733" y2="437.50622225382733"/>
<line stroke="red" stroke-width="1" x1="896.7725550352002" x2="892.365675508193" y1="448.7428507573372" y2="448.7428507573372"/>
<line stroke="red" stroke-width="1" x1="892.365675508193" x2="900" y1="459.814906996353" y2="459.814906996353"/>
<rect fill="none" height="158.3916616719323" stroke="green" stroke-width="2" width="812.7949856253238" x="52.43455204851834" y="459.6046202139439"/>
</svg>