<svg viewBox="-10 -10 1000 1000" xmlns="http://www.w3.org/2000/svg">
<line stroke="blue" stroke-width="1" x1="984.37" x2="984.37" y1="502.92" y2="515"/>
<line stroke="blue" stroke-width="1" x1="977.97" x2="977.97" y1="515" y2="527.27"/>
<line stroke="blue" stroke-width="1" x1="980.37" x2="980.37" y1="527.27" y2="539.28"/>
<line stroke="blue" stroke-width="1" x1="977.71" x2="977.71" y1="539.28" y2="551.0500000000001"/>
<line stroke="blue" stroke-width="1" x1="973.66" x2="973.66" y1="551.0500000000001" y2="563.34"/>
<line stroke="blue" stroke-width="1" x1="974.48" x2="974.48" y1="563.34" y2="575.59"/>
<line stroke="blue" stroke-width="1" x1="974.28" x2="974.28" y1="575.59" y2="586.74"/>
<line stroke="blue" stroke-width="1" x1="967.69" x2="967.69" y1="586.74" y2="598.44"/>
<line stroke="blue" stroke-width="1" x1="964.78" x2="964.78" y1="598.44" y2="612.44"/>
<line stroke="blue" stroke-width="1" x1="971.62" x2="971.62" y1="612.44" y2="622.15"/>
<line stroke="blue" stroke-width="1" x1="960.3100000000001" x2="960.3100000000001" y1="622.15" y2="634.21"/>
<line stroke="blue" stroke-width="1" x1="958.5500000000001" x2="958.5500000000001" y1="634.21" y2="645.0600000000001"/>
<line stroke="blue" stroke-width="1" x1="952.76" x2="952.76" y1="645.0600000000001" y2="659.35"/>
<line stroke="blue" stroke-width="1" x1="957.16" x2="957.16" y1="659.35" y2="670.69"/>
<line stroke="blue" stroke-width="1" x1="952.48" x2="952.48" y1="670.69" y2="681.36"/>
<line stroke="blue" stroke-width="1" x1="946.19" x2="946.19" y1="681.36" y2="692.5"/>
<line stroke="blue" stroke-width="1" x1="941.21" x2="941.21" y1="692.5" y2="701.48"/>
<line stroke="blue" stroke-width="1" x1="931.61" x2="931.61" y1="701.48" y2="714.53"/>
<line stroke="blue" stroke-width="1" x1="930.75" x2="930.75" y1="714.53" y2="727.0500000000001"/>
<line stroke="blue" stroke-width="1" x1="928.34" x2="928.34" y1="727.0500000000001" y2="734.0500000000001"/>
<line stroke="blue" stroke-width="1" x1="915.74" x2="915.74" y1="734.0500000000001" y2="748.37"/>
<line stroke="blue" stroke-width="1" x1="916.15" x2="916.15" y1="748.37" y2="758.87"/>
<line stroke="blue" stroke-width="1" x1="909.78" x2="909.78" y1="758.87" y2="764.73"/>
<line stroke="blue" stroke-width="1" x1="896.46" x2="896.46" y1="764.73" y2="775.21"/>
<line stroke="blue" stroke-width="1" x1="890.36" x2="890.36" y1="775.21" y2="785.16"/>
<line stroke="blue" stroke-width="1" x1="883.47" x2="883.47" y1="785.16" y2="798.46"/>
<line stroke="blue" stroke-width="1" x1="880.8000000000001" x2="880.8000000000001" y1="798.46" y2="805.64"/>
<line stroke="blue" stroke-width="1" x1="870.25" x2="870.25" y1="805.64" y2="813.64"/>
<line stroke="blue" stroke-width="1" x1="860.91" x2="860.91" y1="813.64" y2="822.3100000000001"/>
<line stroke="blue" stroke-width="1" x1="852.45" x2="852.45" y1="822.3100000000001" y2="829.58"/>
<line stroke="blue" stroke-width="1" x1="842.5500000000001" x2="842.5500000000001" y1="829.58" y2="841.02"/>
<line stroke="blue" stroke-width="1" x1="836.9300000000001" x2="836.9300000000001" y1="841.02" y2="849.15"/>
<line stroke="blue" stroke-width="1" x1="827.9" x2="827.9" y1="849.15" y2="858.08"/>
<line stroke="blue" stroke-width="1" x1="819.61" x2="819.61" y1="858.08" y2="869.84"/>
<line stroke="blue" stroke-width="1" x1="813.64" x2="813.64" y1="869.84" y2="877.45"/>
<line stroke="blue" stroke-width="1" x1="803.99" x2="803.99" y1="877.45" y2="878.3000000000001"/>
<line stroke="blue" stroke-width="1" x1="789.19" x2="789.19" y1="878.3000000000001" y2="892.09"/>
<line stroke="blue" stroke-width="1" x1="784.28" x2="784.28" y1="892.09" y2="894.11"/>
<line stroke="blue" stroke-width="1" x1="770.79" x2="770.79" y1="894.11" y2="901.5600000000001"/>
<line stroke="blue" stroke-width="1" x1="761.1800000000001" x2="761.1800000000001" y1="901.5600000000001" y2="910.46"/>
<line stroke="blue" stroke-width="1" x1="752.41" x2="752.41" y1="910.46" y2="910.9200000000001"/>
<line stroke="blue" stroke-width="1" x1="738.5600000000001" x2="738.5600000000001" y1="910.9200000000001" y2="921.94"/>
<line stroke="blue" stroke-width="1" x1="730.87" x2="730.87" y1="921.94" y2="922.54"/>
<line stroke="blue" stroke-width="1" x1="717.48" x2="717.48" y1="922.54" y2="931.98"/>
<line stroke="blue" stroke-width="1" x1="708.66" x2="708.66" y1="931.98" y2="939.64"/>
<line stroke="blue" stroke-width="1" x1="698.79" x2="698.79" y1="939.64" y2="938.71"/>
<line stroke="blue" stroke-width="1" x1="685.13" x2="685.13" y1="938.71" y2="948.76"/>
<line stroke="blue" stroke-width="1" x1="676.12" x2="676.12" y1="948.76" y2="951.5600000000001"/>
<line stroke="blue" stroke-width="1" x1="664.14" x2="664.14" y1="951.5600000000001" y2="952.14"/>
<line stroke="blue" stroke-width="1" x1="651.5" x2="651.5" y1="952.14" y2="962.07"/>
<line stroke="blue" stroke-width="1" x1="641.91" x2="641.91" y1="962.07" y2="958.19"/>
<line stroke="blue" stroke-width="1" x1="628.11" x2="628.11" y1="958.19" y2="966.78"/>
<line stroke="blue" stroke-width="1" x1="617.85" x2="617.85" y1="966.78" y2="963.5600000000001"/>
<line stroke="blue" stroke-width="1" x1="604.62" x2="604.62" y1="963.5600000000001" y2="975.49"/>
<line stroke="blue" stroke-width="1" x1="594.72" x2="594.72" y1="975.49" y2="968.21"/>
<line stroke="blue" stroke-width="1" x1="581" x2="581" y1="968.21" y2="973.97"/>
<line stroke="blue" stroke-width="1" x1="569.6800000000001" x2="569.6800000000001" y1="973.97" y2="974.64"/>
<line stroke="blue" stroke-width="1" x1="557.53" x2="557.53" y1="974.64" y2="981.65"/>
<line stroke="blue" stroke-width="1" x1="546.04" x2="546.04" y1="981.65" y2="976.41"/>
<line stroke="blue" stroke-width="1" x1="533.38" x2="533.38" y1="976.41" y2="980.79"/>
<line stroke="blue" stroke-width="1" x1="521.47" x2="521.47" y1="980.79" y2="980.21"/>
<line stroke="blue" stroke-width="1" x1="509.26" x2="509.26" y1="980.21" y2="976.75"/>
<line stroke="blue" stroke-width="1" x1="497.12" x2="497.12" y1="976.75" y2="975.78"/>
<line stroke="blue" stroke-width="1" x1="485.06" x2="485.06" y1="975.78" y2="976.22"/>
<line stroke="blue" stroke-width="1" x1="472.96000000000004" x2="472.96000000000004" y1="976.22" y2="983.04"/>
<line stroke="blue" stroke-width="1" x1="460.27" x2="460.27" y1="983.04" y2="979.73"/>
<line stroke="blue" stroke-width="1" x1="448.28000000000003" x2="448.28000000000003" y1="979.73" y2="977.53"/>
<line stroke="blue" stroke-width="1" x1="436.24" x2="436.24" y1="977.53" y2="974.13"/>
<line stroke="blue" stroke-width="1" x1="424.43" x2="424.43" y1="974.13" y2="975.75"/>
<line stroke="blue" stroke-width="1" x1="411.76" x2="411.76" y1="975.75" y2="967.88"/>
<line stroke="blue" stroke-width="1" x1="400.89" x2="400.89" y1="967.88" y2="964.83"/>
<line stroke="blue" stroke-width="1" x1="389.16" x2="389.16" y1="964.83" y2="967.4300000000001"/>
<line stroke="blue" stroke-width="1" x1="375.95" x2="375.95" y1="967.4300000000001" y2="960.1"/>
<line stroke="blue" stroke-width="1" x1="365.33" x2="365.33" y1="960.1" y2="954.87"/>
<line stroke="blue" stroke-width="1" x1="354.25" x2="354.25" y1="954.87" y2="950.7"/>
<line stroke="blue" stroke-width="1" x1="342.89" x2="342.89" y1="950.7" y2="952.34"/>
<line stroke="blue" stroke-width="1" x1="329.35" x2="329.35" y1="952.34" y2="945.6"/>
<line stroke="blue" stroke-width="1" x1="318.87" x2="318.87" y1="945.6" y2="935.82"/>
<line stroke="blue" stroke-width="1" x1="309.84000000000003" x2="309.84000000000003" y1="935.82" y2="935.46"/>
<line stroke="blue" stroke-width="1" x1="296.72" x2="296.72" y1="935.46" y2="932.72"/>
<line stroke="blue" stroke-width="1" x1="284.48" x2="284.48" y1="932.72" y2="920.41"/>
<line stroke="blue" stroke-width="1" x1="277.15000000000003" x2="277.15000000000003" y1="920.41" y2="921.62"/>
<line stroke="blue" stroke-width="1" x1="262.63" x2="262.63" y1="921.62" y2="909.77"/>
<line stroke="blue" stroke-width="1" x1="255.43" x2="255.43" y1="909.77" y2="909.12"/>
<line stroke="blue" stroke-width="1" x1="241.54" x2="241.54" y1="909.12" y2="898.16"/>
<line stroke="blue" stroke-width="1" x1="234.12" x2="234.12" y1="898.16" y2="889.98"/>
<line stroke="blue" stroke-width="1" x1="225.05" x2="225.05" y1="889.98" y2="889.11"/>
<line stroke="blue" stroke-width="1" x1="210.63" x2="210.63" y1="889.11" y2="875.5"/>
<line stroke="blue" stroke-width="1" x1="205.69" x2="205.69" y1="875.5" y2="872.75"/>
<line stroke="blue" stroke-width="1" x1="192.29" x2="192.29" y1="872.75" y2="861.0600000000001"/>
<line stroke="blue" stroke-width="1" x1="186.23" x2="186.23" y1="861.0600000000001" y2="856.72"/>
<line stroke="blue" stroke-width="1" x1="173.77" x2="173.77" y1="856.72" y2="843.44"/>
<line stroke="blue" stroke-width="1" x1="169.55" x2="169.55" y1="843.44" y2="837.04"/>
<line stroke="blue" stroke-width="1" x1="158.85" x2="158.85" y1="837.04" y2="828.73"/>
<line stroke="blue" stroke-width="1" x1="149.96" x2="149.96" y1="828.73" y2="821.14"/>
<line stroke="blue" stroke-width="1" x1="140.19" x2="140.19" y1="821.14" y2="812.5600000000001"/>
<line stroke="blue" stroke-width="1" x1="131.42000000000002" x2="131.42000000000002" y1="812.5600000000001" y2="801.6"/>
<line stroke="blue" stroke-width="1" x1="125.51" x2="125.51" y1="801.6" y2="793.84"/>
<line stroke="blue" stroke-width="1" x1="115.61" x2="115.61" y1="793.84" y2="780.7"/>
<line stroke="blue" stroke-width="1" x1="112.85000000000001" x2="112.85000000000001" y1="780.7" y2="769.27"/>
<line stroke="blue" stroke-width="1" x1="108.09" x2="108.09" y1="769.27" y2="760.7"/>
<line stroke="blue" stroke-width="1" x1="99.18" x2="99.18" y1="760.7" y2="753.97"/>
<line stroke="blue" stroke-width="1" x1="87" x2="87" y1="753.97" y2="742.45"/>
<line stroke="blue" stroke-width="1" x1="82.37" x2="82.37" y1="742.45" y2="728.87"/>
<line stroke="blue" stroke-width="1" x1="81.7" x2="81.7" y1="728.87" y2="721.3100000000001"/>
<line stroke="blue" stroke-width="1" x1="69.99" x2="69.99" y1="721.3100000000001" y2="708.51"/>
<line stroke="blue" stroke-width="1" x1="68.34" x2="68.34" y1="708.51" y2="696.38"/>
<line stroke="blue" stroke-width="1" x1="65.7" x2="65.7" y1="696.38" y2="686.79"/>
<line stroke="purple" stroke-width="1" x1="57.35" x2="57.35" y1="686.79" y2="675.9300000000001"/>
<line stroke="blue" stroke-width="1" x1="51.7" x2="51.7" y1="675.9300000000001" y2="662.29"/>
<line stroke="blue" stroke-width="1" x1="53.53" x2="53.53" y1="662.29" y2="652.58"/>
<line stroke="blue" stroke-width="1" x1="44.64" x2="44.64" y1="652.58" y2="642.09"/>
<line stroke="blue" stroke-width="1" x1="37.33" x2="37.33" y1="642.09" y2="628.01"/>
<line stroke="blue" stroke-width="1" x1="42.17" x2="42.17" y1="628.01" y2="617.6"/>
<line stroke="blue" stroke-width="1" x1="34.2" x2="34.2" y1="617.6" y2="605.47"/>
<line stroke="blue" stroke-width="1" x1="32.65" x2="32.65" y1="605.47" y2="594.51"/>
<line stroke="blue" stroke-width="1" x1="25.57" x2="25.57" y1="594.51" y2="581.76"/>
<line stroke="blue" stroke-width="1" x1="27.38" x2="27.38" y1="581.76" y2="570"/>
<line stroke="blue" stroke-width="1" x1="23.81" x2="23.81" y1="570" y2="557.49"/>
<line stroke="blue" stroke-width="1" x1="25.7" x2="25.7" y1="557.49" y2="545.82"/>
<line stroke="blue" stroke-width="1" x1="20.63" x2="20.63" y1="545.82" y2="533.47"/>
<line stroke="blue" stroke-width="1" x1="22.330000000000002" x2="22.330000000000002" y1="533.47" y2="521.55"/>
<line stroke="blue" stroke-width="1" x1="17.46" x2="17.46" y1="521.55" y2="509.22"/>
<line stroke="blue" stroke-width="1" x1="21.82" x2="21.82" y1="509.22" y2="502.69"/>
<line stroke="blue" stroke-width="1" x1="946.34" x2="946.34" y1="502.69" y2="484.84000000000003"/>
<line stroke="blue" stroke-width="1" x1="17.19" x2="17.19" y1="484.84000000000003" y2="472.96000000000004"/>
<line stroke="blue" stroke-width="1" x1="23.73" x2="23.73" y1="472.96000000000004" y2="460.90000000000003"/>
<line stroke="blue" stroke-width="1" x1="24.580000000000002" x2="24.580000000000002" y1="460.90000000000003" y2="448.78000000000003"/>
<line stroke="blue" stroke-width="1" x1="24.92" x2="24.92" y1="448.78000000000003" y2="436.86"/>
<line stroke="blue" stroke-width="1" x1="27.11" x2="27.11" y1="436.86" y2="424.78000000000003"/>
<line stroke="blue" stroke-width="1" x1="28.09" x2="28.09" y1="424.78000000000003" y2="412.86"/>
<line stroke="blue" stroke-width="1" x1="30.21" x2="30.21" y1="412.86" y2="400"/>
<line stroke="blue" stroke-width="1" x1="27.88" x2="27.88" y1="400" y2="388.87"/>
<line stroke="blue" stroke-width="1" x1="33.92" x2="33.92" y1="388.87" y2="376.15000000000003"/>
<line stroke="blue" stroke-width="1" x1="33.31" x2="33.31" y1="376.15000000000003" y2="365.19"/>
<line stroke="blue" stroke-width="1" x1="39.410000000000004" x2="39.410000000000004" y1="365.19" y2="353.7"/>
<line stroke="blue" stroke-width="1" x1="43.38" x2="43.38" y1="353.7" y2="342.62"/>
<line stroke="blue" stroke-width="1" x1="48.5" x2="48.5" y1="342.62" y2="329.46"/>
<line stroke="blue" stroke-width="1" x1="47.95" x2="47.95" y1="329.46" y2="320.97"/>
<line stroke="blue" stroke-width="1" x1="59.56" x2="59.56" y1="320.97" y2="309.98"/>
<line stroke="blue" stroke-width="1" x1="64.48" x2="64.48" y1="309.98" y2="298.51"/>
<line stroke="blue" stroke-width="1" x1="68.37" x2="68.37" y1="298.51" y2="285.12"/>
<line stroke="blue" stroke-width="1" x1="68.55" x2="68.55" y1="285.12" y2="275.67"/>
<line stroke="blue" stroke-width="1" x1="76.8" x2="76.8" y1="275.67" y2="266.04"/>
<line stroke="blue" stroke-width="1" x1="84.42" x2="84.42" y1="266.04" y2="255.09"/>
<line stroke="blue" stroke-width="1" x1="89.64" x2="89.64" y1="255.09" y2="241.08"/>
<line stroke="blue" stroke-width="1" x1="90.13" x2="90.13" y1="241.08" y2="232.57"/>
<line stroke="blue" stroke-width="1" x1="99.51" x2="99.51" y1="232.57" y2="226.11"/>
<line stroke="blue" stroke-width="1" x1="111.52" x2="111.52" y1="226.11" y2="215.36"/>
<line stroke="blue" stroke-width="1" x1="117.24000000000001" x2="117.24000000000001" y1="215.36" y2="205.68"/>
<line stroke="blue" stroke-width="1" x1="124.47" x2="124.47" y1="205.68" y2="194.91"/>
<line stroke="blue" stroke-width="1" x1="130.42000000000002" x2="130.42000000000002" y1="194.91" y2="183.95000000000002"/>
<line stroke="blue" stroke-width="1" x1="136.32" x2="136.32" y1="183.95000000000002" y2="176.93"/>
<line stroke="blue" stroke-width="1" x1="146.72" x2="146.72" y1="176.93" y2="168.25"/>
<line stroke="blue" stroke-width="1" x1="155.19" x2="155.19" y1="168.25" y2="160.12"/>
<line stroke="blue" stroke-width="1" x1="164.20000000000002" x2="164.20000000000002" y1="160.12" y2="150.69"/>
<line stroke="blue" stroke-width="1" x1="171.95000000000002" x2="171.95000000000002" y1="150.69" y2="142.27"/>
<line stroke="blue" stroke-width="1" x1="180.70000000000002" x2="180.70000000000002" y1="142.27" y2="136.99"/>
<line stroke="blue" stroke-width="1" x1="192.15" x2="192.15" y1="136.99" y2="123.64"/>
<line stroke="blue" stroke-width="1" x1="196.88" x2="196.88" y1="123.64" y2="117.39"/>
<line stroke="blue" stroke-width="1" x1="207.52" x2="207.52" y1="117.39" y2="112.33"/>
<line stroke="blue" stroke-width="1" x1="218.91" x2="218.91" y1="112.33" y2="102.61"/>
<line stroke="blue" stroke-width="1" x1="226.95000000000002" x2="226.95000000000002" y1="102.61" y2="94.29"/>
<line stroke="blue" stroke-width="1" x1="236.12" x2="236.12" y1="94.29" y2="88.8"/>
<line stroke="blue" stroke-width="1" x1="247.13" x2="247.13" y1="88.8" y2="87.4"/>
<line stroke="blue" stroke-width="1" x1="260.46" x2="260.46" y1="87.4" y2="79.34"/>
<line stroke="blue" stroke-width="1" x1="269.82" x2="269.82" y1="79.34" y2="77.45"/>
<line stroke="blue" stroke-width="1" x1="282.51" x2="282.51" y1="77.45" y2="70.19"/>
<line stroke="blue" stroke-width="1" x1="292.37" x2="292.37" y1="70.19" y2="62.370000000000005"/>
<line stroke="blue" stroke-width="1" x1="302.11" x2="302.11" y1="62.370000000000005" y2="56.120000000000005"/>
<line stroke="blue" stroke-width="1" x1="312.68" x2="312.68" y1="56.120000000000005" y2="50.46"/>
<line stroke="blue" stroke-width="1" x1="323.57" x2="323.57" y1="50.46" y2="52.39"/>
<line stroke="blue" stroke-width="1" x1="337.29" x2="337.29" y1="52.39" y2="41.7"/>
<line stroke="blue" stroke-width="1" x1="346.43" x2="346.43" y1="41.7" y2="41.62"/>
<line stroke="blue" stroke-width="1" x1="359.22" x2="359.22" y1="41.62" y2="34.410000000000004"/>
<line stroke="blue" stroke-width="1" x1="369.81" x2="369.81" y1="34.410000000000004" y2="36.83"/>
<line stroke="blue" stroke-width="1" x1="383.05" x2="383.05" y1="36.83" y2="27.79"/>
<line stroke="blue" stroke-width="1" x1="393.42" x2="393.42" y1="27.79" y2="24.88"/>
<line stroke="blue" stroke-width="1" x1="405.34000000000003" x2="405.34000000000003" y1="24.88" y2="25.25"/>
<line stroke="blue" stroke-width="1" x1="417.86" x2="417.86" y1="25.25" y2="23.26"/>
<line stroke="blue" stroke-width="1" x1="429.91" x2="429.91" y1="23.26" y2="28.1"/>
<line stroke="blue" stroke-width="1" x1="442.79" x2="442.79" y1="28.1" y2="25.2"/>
<line stroke="blue" stroke-width="1" x1="454.61" x2="454.61" y1="25.2" y2="25.82"/>
<line stroke="blue" stroke-width="1" x1="466.76" x2="466.76" y1="25.82" y2="22.11"/>
<line stroke="blue" stroke-width="1" x1="478.65000000000003" x2="478.65000000000003" y1="22.11" y2="16.75"/>
<line stroke="blue" stroke-width="1" x1="490.67" x2="490.67" y1="16.75" y2="15.9"/>
<line stroke="blue" stroke-width="1" x1="502.92" x2="502.92" y1="15.9" y2="24.62"/>
<line stroke="blue" stroke-width="1" x1="514.91" x2="514.91" y1="24.62" y2="18.3"/>
<line stroke="blue" stroke-width="1" x1="527.34" x2="527.34" y1="18.3" y2="22.37"/>
<line stroke="blue" stroke-width="1" x1="539.27" x2="539.27" y1="22.37" y2="24.19"/>
<line stroke="blue" stroke-width="1" x1="551.28" x2="551.28" y1="24.19" y2="21.240000000000002"/>
<line stroke="blue" stroke-width="1" x1="563.91" x2="563.91" y1="21.240000000000002" y2="27.54"/>
<line stroke="blue" stroke-width="1" x1="575.3000000000001" x2="575.3000000000001" y1="27.54" y2="30.810000000000002"/>
<line stroke="blue" stroke-width="1" x1="587.02" x2="587.02" y1="30.810000000000002" y2="28.59"/>
<line stroke="blue" stroke-width="1" x1="599.84" x2="599.84" y1="28.59" y2="37.9"/>
<line stroke="blue" stroke-width="1" x1="610.17" x2="610.17" y1="37.9" y2="40.21"/>
<line stroke="blue" stroke-width="1" x1="622.01" x2="622.01" y1="40.21" y2="43.58"/>
<line stroke="blue" stroke-width="1" x1="633.58" x2="633.58" y1="43.58" y2="45.79"/>
<line stroke="blue" stroke-width="1" x1="645.52" x2="645.52" y1="45.79" y2="45.74"/>
<line stroke="blue" stroke-width="1" x1="658.33" x2="658.33" y1="45.74" y2="47.800000000000004"/>
<line stroke="blue" stroke-width="1" x1="670.58" x2="670.58" y1="47.800000000000004" y2="59.01"/>
<line stroke="blue" stroke-width="1" x1="679.24" x2="679.24" y1="59.01" y2="62.49"/>
<line stroke="blue" stroke-width="1" x1="690.88" x2="690.88" y1="62.49" y2="67.98"/>
<line stroke="blue" stroke-width="1" x1="701.66" x2="701.66" y1="67.98" y2="70.33"/>
<line stroke="blue" stroke-width="1" x1="713.98" x2="713.98" y1="70.33" y2="78.9"/>
<line stroke="blue" stroke-width="1" x1="723.2" x2="723.2" y1="78.9" y2="77.79"/>
<line stroke="blue" stroke-width="1" x1="737.6800000000001" x2="737.6800000000001" y1="77.79" y2="90.15"/>
<line stroke="blue" stroke-width="1" x1="744.6" x2="744.6" y1="90.15" y2="95.76"/>
<line stroke="blue" stroke-width="1" x1="755.36" x2="755.36" y1="95.76" y2="99.83"/>
<line stroke="blue" stroke-width="1" x1="767.2" x2="767.2" y1="99.83" y2="106.33"/>
<line stroke="blue" stroke-width="1" x1="777.54" x2="777.54" y1="106.33" y2="117.29"/>
<line stroke="blue" stroke-width="1" x1="784.59" x2="784.59" y1="117.29" y2="123.94"/>
<line stroke="blue" stroke-width="1" x1="794.73" x2="794.73" y1="123.94" y2="128.82"/>
<line stroke="blue" stroke-width="1" x1="806.4" x2="806.4" y1="128.82" y2="139.67000000000002"/>
<line stroke="blue" stroke-width="1" x1="813.12" x2="813.12" y1="139.67000000000002" y2="147.8"/>
<line stroke="blue" stroke-width="1" x1="822.08" x2="822.08" y1="147.8" y2="156.16"/>
<line stroke="blue" stroke-width="1" x1="830.8100000000001" x2="830.8100000000001" y1="156.16" y2="162.49"/>
<line stroke="blue" stroke-width="1" x1="841.6" x2="841.6" y1="162.49" y2="173.75"/>
<line stroke="blue" stroke-width="1" x1="847.38" x2="847.38" y1="173.75" y2="180.41"/>
<line stroke="blue" stroke-width="1" x1="858.0500000000001" x2="858.0500000000001" y1="180.41" y2="190.61"/>
<line stroke="blue" stroke-width="1" x1="864.82" x2="864.82" y1="190.61" y2="199.97"/>
<line stroke="blue" stroke-width="1" x1="872.51" x2="872.51" y1="199.97" y2="209.78"/>
<line stroke="blue" stroke-width="1" x1="879.63" x2="879.63" y1="209.78" y2="219.68"/>
<line stroke="blue" stroke-width="1" x1="886.6" x2="886.6" y1="219.68" y2="227.14000000000001"/>
<line stroke="blue" stroke-width="1" x1="897.11" x2="897.11" y1="227.14000000000001" y2="236.93"/>
<line stroke="blue" stroke-width="1" x1="904.44" x2="904.44" y1="236.93" y2="245.97"/>
<line stroke="blue" stroke-width="1" x1="913.08" x2="913.08" y1="245.97" y2="257.36"/>
<line stroke="blue" stroke-width="1" x1="917.9300000000001" x2="917.9300000000001" y1="257.36" y2="268.17"/>
<line stroke="blue" stroke-width="1" x1="923.6800000000001" x2="923.6800000000001" y1="268.17" y2="279.41"/>
<line stroke="blue" stroke-width="1" x1="928.57" x2="928.57" y1="279.41" y2="291.46"/>
<line stroke="blue" stroke-width="1" x1="931.69" x2="931.69" y1="291.46" y2="302.8"/>
<line stroke="blue" stroke-width="1" x1="936.09" x2="936.09" y1="302.8" y2="315"/>
<line stroke="blue" stroke-width="1" x1="938.36" x2="938.36" y1="315" y2="325.36"/>
<line stroke="blue" stroke-width="1" x1="944.97" x2="944.97" y1="325.36" y2="335.6"/>
<line stroke="blue" stroke-width="1" x1="952.25" x2="952.25" y1="335.6" y2="348.96"/>
<line stroke="blue" stroke-width="1" x1="950.74" x2="950.74" y1="348.96" y2="360.11"/>
<line stroke="blue" stroke-width="1" x1="955.44" x2="955.44" y1="360.11" y2="370.18"/>
<line stroke="blue" stroke-width="1" x1="964.26" x2="964.26" y1="370.18" y2="383.18"/>
<line stroke="blue" stroke-width="1" x1="962.6700000000001" x2="962.6700000000001" y1="383.18" y2="394.74"/>
<line stroke="blue" stroke-width="1" x1="966.33" x2="966.33" y1="394.74" y2="405.36"/>
<line stroke="blue" stroke-width="1" x1="975.0500000000001" x2="975.0500000000001" y1="405.36" y2="418.62"/>
<line stroke="blue" stroke-width="1" x1="970.33" x2="970.33" y1="418.62" y2="430.38"/>
<line stroke="blue" stroke-width="1" x1="973.49" x2="973.49" y1="430.38" y2="442.40000000000003"/>
<line stroke="blue" stroke-width="1" x1="975.1" x2="975.1" y1="442.40000000000003" y2="454.15000000000003"/>
<line stroke="blue" stroke-width="1" x1="979.61" x2="979.61" y1="454.15000000000003" y2="466.31"/>
<line stroke="blue" stroke-width="1" x1="980.6700000000001" x2="980.6700000000001" y1="466.31" y2="478.52"/>
<line stroke="blue" stroke-width="1" x1="980.84" x2="980.84" y1="478.52" y2="490.81"/>
<line stroke="blue" stroke-width="1" x1="976.02" x2="976.02" y1="490.81" y2="502.92"/>
<line stroke="red" stroke-width="1" x1="984.37" x2="977.97" y1="515" y2="515"/>
<line stroke="red" stroke-width="1" x1="977.97" x2="980.37" y1="527.27" y2="527.27"/>
<line stroke="red" stroke-width="1" x1="980.37" x2="977.71" y1="539.28" y2="539.28"/>
<line stroke="red" stroke-width="1" x1="977.71" x2="973.66" y1="551.0500000000001" y2="551.0500000000001"/>
<line stroke="red" stroke-width="1" x1="973.66" x2="974.48" y1="563.34" y2="563.34"/>
<line stroke="red" stroke-width="1" x1="974.48" x2="974.28" y1="575.59" y2="575.59"/>
<line stroke="red" stroke-width="1" x1="974.28" x2="967.69" y1="586.74" y2="586.74"/>
<line stroke="red" stroke-width="1" x1="967.69" x2="964.78" y1="598.44" y2="598.44"/>
<line stroke="red" stroke-width="1" x1="964.78" x2="971.62" y1="612.44" y2="612.44"/>
<line stroke="red" stroke-width="1" x1="971.62" x2="960.3100000000001" y1="622.15" y2="622.15"/>
<line stroke="red" stroke-width="1" x1="960.3100000000001" x2="958.5500000000001" y1="634.21" y2="634.21"/>
<line stroke="red" stroke-width="1" x1="958.5500000000001" x2="952.76" y1="645.0600000000001" y2="645.0600000000001"/>
<line stroke="red" stroke-width="1" x1="952.76" x2="957.16" y1="659.35" y2="659.35"/>
<line stroke="red" stroke-width="1" x1="957.16" x2="952.48" y1="670.69" y2="670.69"/>
<line stroke="red" stroke-width="1" x1="952.48" x2="946.19" y1="681.36" y2="681.36"/>
<line stroke="red" stroke-width="1" x1="946.19" x2="941.21" y1="692.5" y2="692.5"/>
<line stroke="red" stroke-width="1" x1="941.21" x2="931.61" y1="701.48" y2="701.48"/>
<line stroke="red" stroke-width="1" x1="931.61" x2="930.75" y1="714.53" y2="714.53"/>
<line stroke="red" stroke-width="1" x1="930.75" x2="928.34" y1="727.0500000000001" y2="727.0500000000001"/>
<line stroke="red" stroke-width="1" x1="928.34" x2="915.74" y1="734.0500000000001" y2="734.0500000000001"/>
<line stroke="red" stroke-width="1" x1="915.74" x2="916.15" y1="748.37" y2="748.37"/>
<line stroke="red" stroke-width="1" x1="916.15" x2="909.78" y1="758.87" y2="758.87"/>
<line stroke="red" stroke-width="1" x1="909.78" x2="896.46" y1="764.73" y2="764.73"/>
<line stroke="red" stroke-width="1" x1="896.46" x2="890.36" y1="775.21" y2="775.21"/>
<line stroke="red" stroke-width="1" x1="890.36" x2="883.47" y1="785.16" y2="785.16"/>
<line stroke="red" stroke-width="1" x1="883.47" x2="880.8000000000001" y1="798.46" y2="798.46"/>
<line stroke="red" stroke-width="1" x1="880.8000000000001" x2="870.25" y1="805.64" y2="805.64"/>
<line stroke="red" stroke-width="1" x1="870.25" x2="860.91" y1="813.64" y2="813.64"/>
<line stroke="red" stroke-width="1" x1="860.91" x2="852.45" y1="822.3100000000001" y2="822.3100000000001"/>
<line stroke="red" stroke-width="1" x1="852.45" x2="842.5500000000001" y1="829.58" y2="829.58"/>
<line stroke="red" stroke-width="1" x1="842.5500000000001" x2="836.9300000000001" y1="841.02" y2="841.02"/>
<line stroke="red" stroke-width="1" x1="836.9300000000001" x2="827.9" y1="849.15" y2="849.15"/>
<line stroke="red" stroke-width="1" x1="827.9" x2="819.61" y1="858.08" y2="858.08"/>
<line stroke="red" stroke-width="1" x1="819.61" x2="813.64" y1="869.84" y2="869.84"/>
<line stroke="red" stroke-width="1" x1="813.64" x2="803.99" y1="877.45" y2="877.45"/>
<line stroke="red" stroke-width="1" x1="803.99" x2="789.19" y1="878.3000000000001" y2="878.3000000000001"/>
<line stroke="red" stroke-width="1" x1="789.19" x2="784.28" y1="892.09" y2="892.09"/>
<line stroke="red" stroke-width="1" x1="784.28" x2="770.79" y1="894.11" y2="894.11"/>
<line stroke="red" stroke-width="1" x1="770.79" x2="761.1800000000001" y1="901.5600000000001" y2="901.5600000000001"/>
<line stroke="red" stroke-width="1" x1="761.1800000000001" x2="752.41" y1="910.46" y2="910.46"/>
<line stroke="red" stroke-width="1" x1="752.41" x2="738.5600000000001" y1="910.9200000000001" y2="910.9200000000001"/>
<line stroke="red" stroke-width="1" x1="738.5600000000001" x2="730.87" y1="921.94" y2="921.94"/>
<line stroke="red" stroke-width="1" x1="730.87" x2="717.48" y1="922.54" y2="922.54"/>
<line stroke="red" stroke-width="1" x1="717.48" x2="708.66" y1="931.98" y2="931.98"/>
<line stroke="red" stroke-width="1" x1="708.66" x2="698.79" y1="939.64" y2="939.64"/>
<line stroke="red" stroke-width="1" x1="698.79" x2="685.13" y1="938.71" y2="938.71"/>
<line stroke="red" stroke-width="1" x1="685.13" x2="676.12" y1="948.76" y2="948.76"/>
<line stroke="red" stroke-width="1" x1="676.12" x2="664.14" y1="951.5600000000001" y2="951.5600000000001"/>
<line stroke="red" stroke-width="1" x1="664.14" x2="651.5" y1="952.14" y2="952.14"/>
<line stroke="red" stroke-width="1" x1="651.5" x2="641.91" y1="962.07" y2="962.07"/>
<line stroke="red" stroke-width="1" x1="641.91" x2="628.11" y1="958.19" y2="958.19"/>
<line stroke="red" stroke-width="1" x1="628.11" x2="617.85" y1="966.78" y2="966.78"/>
<line stroke="red" stroke-width="1" x1="617.85" x2="604.62" y1="963.5600000000001" y2="963.5600000000001"/>
<line stroke="red" stroke-width="1" x1="604.62" x2="594.72" y1="975.49" y2="975.49"/>
<line stroke="red" stroke-width="1" x1="594.72" x2="581" y1="968.21" y2="968.21"/>
<line stroke="red" stroke-width="1" x1="581" x2="569.6800000000001" y1="973.97" y2="973.97"/>
<line stroke="red" stroke-width="1" x1="569.6800000000001" x2="557.53" y1="974.64" y2="974.64"/>
<line stroke="red" stroke-width="1" x1="557.53" x2="546.04" y1="981.65" y2="981.65"/>
<line stroke="red" stroke-width="1" x1="546.04" x2="533.38" y1="976.41" y2="976.41"/>
<line stroke="red" stroke-width="1" x1="533.38" x2="521.47" y1="980.79" y2="980.79"/>
<line stroke="red" stroke-width="1" x1="521.47" x2="509.26" y1="980.21" y2="980.21"/>
<line stroke="red" stroke-width="1" x1="509.26" x2="497.12" y1="976.75" y2="976.75"/>
<line stroke="red" stroke-width="1" x1="497.12" x2="485.06" y1="975.78" y2="975.78"/>
<line stroke="red" stroke-width="1" x1="485.06" x2="472.96000000000004" y1="976.22" y2="976.22"/>
<line stroke="red" stroke-width="1" x1="472.96000000000004" x2="460.27" y1="983.04" y2="983.04"/>
<line stroke="red" stroke-width="1" x1="460.27" x2="448.28000000000003" y1="979.73" y2="979.73"/>
<line stroke="red" stroke-width="1" x1="448.28000000000003" x2="436.24" y1="977.53" y2="977.53"/>
<line stroke="red" stroke-width="1" x1="436.24" x2="424.43" y1="974.13" y2="974.13"/>
<line stroke="red" stroke-width="1" x1="424.43" x2="411.76" y1="975.75" y2="975.75"/>
<line stroke="red" stroke-width="1" x1="411.76" x2="400.89" y1="967.88" y2="967.88"/>
<line stroke="red" stroke-width="1" x1="400.89" x2="389.16" y1="964.83" y2="964.83"/>
<line stroke="red" stroke-width="1" x1="389.16" x2="375.95" y1="967.4300000000001" y2="967.4300000000001"/>
<line stroke="red" stroke-width="1" x1="375.95" x2="365.33" y1="960.1" y2="960.1"/>
<line stroke="red" stroke-width="1" x1="365.33" x2="354.25" y1="954.87" y2="954.87"/>
<line stroke="red" stroke-width="1" x1="354.25" x2="342.89" y1="950.7" y2="950.7"/>
<line stroke="red" stroke-width="1" x1="342.89" x2="329.35" y1="952.34" y2="952.34"/>
<line stroke="red" stroke-width="1" x1="329.35" x2="318.87" y1="945.6" y2="945.6"/>
<line stroke="red" stroke-width="1" x1="318.87" x2="309.84000000000003" y1="935.82" y2="935.82"/>
<line stroke="red" stroke-width="1" x1="309.84000000000003" x2="296.72" y1="935.46" y2="935.46"/>
<line stroke="red" stroke-width="1" x1="296.72" x2="284.48" y1="932.72" y2="932.72"/>
<line stroke="red" stroke-width="1" x1="284.48" x2="277.15000000000003" y1="920.41" y2="920.41"/>
<line stroke="red" stroke-width="1" x1="277.15000000000003" x2="262.63" y1="921.62" y2="921.62"/>
<line stroke="red" stroke-width="1" x1="262.63" x2="255.43" y1="909.77" y2="909.77"/>
<line stroke="red" stroke-width="1" x1="255.43" x2="241.54" y1="909.12" y2="909.12"/>
<line stroke="red" stroke-width="1" x1="241.54" x2="234.12" y1="898.16" y2="898.16"/>
<line stroke="red" stroke-width="1" x1="234.12" x2="225.05" y1="889.98" y2="889.98"/>
<line stroke="red" stroke-width="1" x1="225.05" x2="210.63" y1="889.11" y2="889.11"/>
<line stroke="red" stroke-width="1" x1="210.63" x2="205.69" y1="875.5" y2="875.5"/>
<line stroke="red" stroke-width="1" x1="205.69" x2="192.29" y1="872.75" y2="872.75"/>
<line stroke="red" stroke-width="1" x1="192.29" x2="186.23" y1="861.0600000000001" y2="861.0600000000001"/>
<line stroke="red" stroke-width="1" x1="186.23" x2="173.77" y1="856.72" y2="856.72"/>
<line stroke="red" stroke-width="1" x1="173.77" x2="169.55" y1="843.44" y2="843.44"/>
<line stroke="red" stroke-width="1" x1="169.55" x2="158.85" y1="837.04" y2="837.04"/>
<line stroke="red" stroke-width="1" x1="158.85" x2="149.96" y1="828.73" y2="828.73"/>
<line stroke="red" stroke-width="1" x1="149.96" x2="140.19" y1="821.14" y2="821.14"/>
<line stroke="red" stroke-width="1" x1="140.19" x2="131.42000000000002" y1="812.5600000000001" y2="812.5600000000001"/>
<line stroke="red" stroke-width="1" x1="131.42000000000002" x2="125.51" y1="801.6" y2="801.6"/>
<line stroke="red" stroke-width="1" x1="125.51" x2="115.61" y1="793.84" y2="793.84"/>
<line stroke="red" stroke-width="1" x1="115.61" x2="112.85000000000001" y1="780.7" y2="780.7"/>
<line stroke="red" stroke-width="1" x1="112.85000000000001" x2="108.09" y1="769.27" y2="769.27"/>
<line stroke="red" stroke-width="1" x1="108.09" x2="99.18" y1="760.7" y2="760.7"/>
<line stroke="red" stroke-width="1" x1="99.18" x2="87" y1="753.97" y2="753.97"/>
<line stroke="red" stroke-width="1" x1="87" x2="82.37" y1="742.45" y2="742.45"/>
<line stroke="red" stroke-width="1" x1="82.37" x2="81.7" y1="728.87" y2="728.87"/>
<line stroke="red" stroke-width="1" x1="81.7" x2="69.99" y1="721.3100000000001" y2="721.3100000000001"/>
<line stroke="red" stroke-width="1" x1="69.99" x2="68.34" y1="708.51" y2="708.51"/>
<line stroke="red" stroke-width="1" x1="68.34" x2="65.7" y1="696.38" y2="696.38"/>
<line stroke="red" stroke-width="1" x1="65.7" x2="57.35" y1="686.79" y2="686.79"/>
<line stroke="orange" stroke-width="1" x1="57.35" x2="51.7" y1="675.9300000000001" y2="675.9300000000001"/>
<line stroke="red" stroke-width="1" x1="51.7" x2="53.53" y1="662.29" y2="662.29"/>
<line stroke="red" stroke-width="1" x1="53.53" x2="44.64" y1="652.58" y2="652.58"/>
<line stroke="red" stroke-width="1" x1="44.64" x2="37.33" y1="642.09" y2="642.09"/>
<line stroke="red" stroke-width="1" x1="37.33" x2="42.17" y1="628.01" y2="628.01"/>
<line stroke="red" stroke-width="1" x1="42.17" x2="34.2" y1="617.6" y2="617.6"/>
<line stroke="red" stroke-width="1" x1="34.2" x2="32.65" y1="605.47" y2="605.47"/>
<line stroke="red" stroke-width="1" x1="32.65" x2="25.57" y1="594.51" y2="594.51"/>
<line stroke="red" stroke-width="1" x1="25.57" x2="27.38" y1="581.76" y2="581.76"/>
<line stroke="red" stroke-width="1" x1="27.38" x2="23.81" y1="570" y2="570"/>
<line stroke="red" stroke-width="1" x1="23.81" x2="25.7" y1="557.49" y2="557.49"/>
<line stroke="red" stroke-width="1" x1="25.7" x2="20.63" y1="545.82" y2="545.82"/>
<line stroke="red" stroke-width="1" x1="20.63" x2="22.330000000000002" y1="533.47" y2="533.47"/>
<line stroke="red" stroke-width="1" x1="22.330000000000002" x2="17.46" y1="521.55" y2="521.55"/>
<line stroke="red" stroke-width="1" x1="17.46" x2="21.82" y1="509.22" y2="509.22"/>
<line stroke="orange" stroke-width="1" x1="21.82" x2="946.34" y1="502.69" y2="502.69"/>
<line stroke="red" stroke-width="1" x1="946.34" x2="17.19" y1="484.84000000000003" y2="484.84000000000003"/>
<line stroke="red" stroke-width="1" x1="17.19" x2="23.73" y1="472.96000000000004" y2="472.96000000000004"/>
<line stroke="red" stroke-width="1" x1="23.73" x2="24.580000000000002" y1="460.90000000000003" y2="460.90000000000003"/>
<line stroke="red" stroke-width="1" x1="24.580000000000002" x2="24.92" y1="448.78000000000003" y2="448.78000000000003"/>
<line stroke="red" stroke-width="1" x1="24.92" x2="27.11" y1="436.86" y2="436.86"/>
<line stroke="red" stroke-width="1" x1="27.11" x2="28.09" y1="424.78000000000003" y2="424.78000000000003"/>
<line stroke="red" stroke-width="1" x1="28.09" x2="30.21" y1="412.86" y2="412.86"/>
<line stroke="red" stroke-width="1" x1="30.21" x2="27.88" y1="400" y2="400"/>
<line stroke="red" stroke-width="1" x1="27.88" x2="33.92" y1="388.87" y2="388.87"/>
<line stroke="red" stroke-width="1" x1="33.92" x2="33.31" y1="376.15000000000003" y2="376.15000000000003"/>
<line stroke="red" stroke-width="1" x1="33.31" x2="39.410000000000004" y1="365.19" y2="365.19"/>
<line stroke="red" stroke-width="1" x1="39.410000000000004" x2="43.38" y1="353.7" y2="353.7"/>
<line stroke="red" stroke-width="1" x1="43.38" x2="48.5" y1="342.62" y2="342.62"/>
<line stroke="red" stroke-width="1" x1="48.5" x2="47.95" y1="329.46" y2="329.46"/>
<line stroke="red" stroke-width="1" x1="47.95" x2="59.56" y1="320.97" y2="320.97"/>
<line stroke="red" stroke-width="1" x1="59.56" x2="64.48" y1="309.98" y2="309.98"/>
<line stroke="red" stroke-width="1" x1="64.48" x2="68.37" y1="298.51" y2="298.51"/>
<line stroke="red" stroke-width="1" x1="68.37" x2="68.55" y1="285.12" y2="285.12"/>
<line stroke="red" stroke-width="1" x1="68.55" x2="76.8" y1="275.67" y2="275.67"/>
<line stroke="red" stroke-width="1" x1="76.8" x2="84.42" y1="266.04" y2="266.04"/>
<line stroke="red" stroke-width="1" x1="84.42" x2="89.64" y1="255.09" y2="255.09"/>
<line stroke="red" stroke-width="1" x1="89.64" x2="90.13" y1="241.08" y2="241.08"/>
<line stroke="red" stroke-width="1" x1="90.13" x2="99.51" y1="232.57" y2="232.57"/>
<line stroke="red" stroke-width="1" x1="99.51" x2="111.52" y1="226.11" y2="226.11"/>
<line stroke="red" stroke-width="1" x1="111.52" x2="117.24000000000001" y1="215.36" y2="215.36"/>
<line stroke="red" stroke-width="1" x1="117.24000000000001" x2="124.47" y1="205.68" y2="205.68"/>
<line stroke="red" stroke-width="1" x1="124.47" x2="130.42000000000002" y1="194.91" y2="194.91"/>
<line stroke="red" stroke-width="1" x1="130.42000000000002" x2="136.32" y1="183.95000000000002" y2="183.95000000000002"/>
<line stroke="red" stroke-width="1" x1="136.32" x2="146.72" y1="176.93" y2="176.93"/>
<line stroke="red" stroke-width="1" x1="146.72" x2="155.19" y1="168.25" y2="168.25"/>
<line stroke="red" stroke-width="1" x1="155.19" x2="164.20000000000002" y1="160.12" y2="160.12"/>
<line stroke="red" stroke-width="1" x1="164.20000000000002" x2="171.95000000000002" y1="150.69" y2="150.69"/>
<line stroke="red" stroke-width="1" x1="171.95000000000002" x2="180.70000000000002" y1="142.27" y2="142.27"/>
<line stroke="red" stroke-width="1" x1="180.70000000000002" x2="192.15" y1="136.99" y2="136.99"/>
<line stroke="red" stroke-width="1" x1="192.15" x2="196.88" y1="123.64" y2="123.64"/>
<line stroke="red" stroke-width="1" x1="196.88" x2="207.52" y1="117.39" y2="117.39"/>
<line stroke="red" stroke-width="1" x1="207.52" x2="218.91" y1="112.33" y2="112.33"/>
<line stroke="red" stroke-width="1" x1="218.91" x2="226.95000000000002" y1="102.61" y2="102.61"/>
<line stroke="red" stroke-width="1" x1="226.95000000000002" x2="236.12" y1="94.29" y2="94.29"/>
<line stroke="red" stroke-width="1" x1="236.12" x2="247.13" y1="88.8" y2="88.8"/>
<line stroke="red" stroke-width="1" x1="247.13" x2="260.46" y1="87.4" y2="87.4"/>
<line stroke="red" stroke-width="1" x1="260.46" x2="269.82" y1="79.34" y2="79.34"/>
<line stroke="red" stroke-width="1" x1="269.82" x2="282.51" y1="77.45" y2="77.45"/>
<line stroke="red" stroke-width="1" x1="282.51" x2="292.37" y1="70.19" y2="70.19"/>
<line stroke="red" stroke-width="1" x1="292.37" x2="302.11" y1="62.370000000000005" y2="62.370000000000005"/>
<line stroke="red" stroke-width="1" x1="302.11" x2="312.68" y1="56.120000000000005" y2="56.120000000000005"/>
<line stroke="red" stroke-width="1" x1="312.68" x2="323.57" y1="50.46" y2="50.46"/>
<line stroke="red" stroke-width="1" x1="323.57" x2="337.29" y1="52.39" y2="52.39"/>
<line stroke="red" stroke-width="1" x1="337.29" x2="346.43" y1="41.7" y2="41.7"/>
<line stroke="red" stroke-width="1" x1="346.43" x2="359.22" y1="41.62" y2="41.62"/>
<line stroke="red" stroke-width="1" x1="359.22" x2="369.81" y1="34.410000000000004" y2="34.410000000000004"/>
<line stroke="red" stroke-width="1" x1="369.81" x2="383.05" y1="36.83" y2="36.83"/>
<line stroke="red" stroke-width="1" x1="383.05" x2="393.42" y1="27.79" y2="27.79"/>
<line stroke="red" stroke-width="1" x1="393.42" x2="405.34000000000003" y1="24.88" y2="24.88"/>
<line stroke="red" stroke-width="1" x1="405.34000000000003" x2="417.86" y1="25.25" y2="25.25"/>
<line stroke="red" stroke-width="1" x1="417.86" x2="429.91" y1="23.26" y2="23.26"/>
<line stroke="red" stroke-width="1" x1="429.91" x2="442.79" y1="28.1" y2="28.1"/>
<line stroke="red" stroke-width="1" x1="442.79" x2="454.61" y1="25.2" y2="25.2"/>
<line stroke="red" stroke-width="1" x1="454.61" x2="466.76" y1="25.82" y2="25.82"/>
<line stroke="red" stroke-width="1" x1="466.76" x2="478.65000000000003" y1="22.11" y2="22.11"/>
<line stroke="red" stroke-width="1" x1="478.65000000000003" x2="490.67" y1="16.75" y2="16.75"/>
<line stroke="red" stroke-width="1" x1="490.67" x2="502.92" y1="15.9" y2="15.9"/>
<line stroke="red" stroke-width="1" x1="502.92" x2="514.91" y1="24.62" y2="24.62"/>
<line stroke="red" stroke-width="1" x1="514.91" x2="527.34" y1="18.3" y2="18.3"/>
<line stroke="red" stroke-width="1" x1="527.34" x2="539.27" y1="22.37" y2="22.37"/>
<line stroke="red" stroke-width="1" x1="539.27" x2="551.28" y1="24.19" y2="24.19"/>
<line stroke="red" stroke-width="1" x1="551.28" x2="563.91" y1="21.240000000000002" y2="21.240000000000002"/>
<line stroke="red" stroke-width="1" x1="563.91" x2="575.3000000000001" y1="27.54" y2="27.54"/>
<line stroke="red" stroke-width="1" x1="575.3000000000001" x2="587.02" y1="30.810000000000002" y2="30.810000000000002"/>
<line stroke="red" stroke-width="1" x1="587.02" x2="599.84" y1="28.59" y2="28.59"/>
<line stroke="red" stroke-width="1" x1="599.84" x2="610.17" y1="37.9" y2="37.9"/>
<line stroke="red" stroke-width="1" x1="610.17" x2="622.01" y1="40.21" y2="40.21"/>
<line stroke="red" stroke-width="1" x1="622.01" x2="633.58" y1="43.58" y2="43.58"/>
<line stroke="red" stroke-width="1" x1="633.58" x2="645.52" y1="45.79" y2="45.79"/>
<line stroke="red" stroke-width="1" x1="645.52" x2="658.33" y1="45.74" y2="45.74"/>
<line stroke="red" stroke-width="1" x1="658.33" x2="670.58" y1="47.800000000000004" y2="47.800000000000004"/>
<line stroke="red" stroke-width="1" x1="670.58" x2="679.24" y1="59.01" y2="59.01"/>
<line stroke="red" stroke-width="1" x1="679.24" x2="690.88" y1="62.49" y2="62.49"/>
<line stroke="red" stroke-width="1" x1="690.88" x2="701.66" y1="67.98" y2="67.98"/>
<line stroke="red" stroke-width="1" x1="701.66" x2="713.98" y1="70.33" y2="70.33"/>
<line stroke="red" stroke-width="1" x1="713.98" x2="723.2" y1="78.9" y2="78.9"/>
<line stroke="red" stroke-width="1" x1="723.2" x2="737.6800000000001" y1="77.79" y2="77.79"/>
<line stroke="red" stroke-width="1" x1="737.6800000000001" x2="744.6" y1="90.15" y2="90.15"/>
<line stroke="red" stroke-width="1" x1="744.6" x2="755.36" y1="95.76" y2="95.76"/>
<line stroke="red" stroke-width="1" x1="755.36" x2="767.2" y1="99.83" y2="99.83"/>
<line stroke="red" stroke-width="1" x1="767.2" x2="777.54" y1="106.33" y2="106.33"/>
<line stroke="red" stroke-width="1" x1="777.54" x2="784.59" y1="117.29" y2="117.29"/>
<line stroke="red" stroke-width="1" x1="784.59" x2="794.73" y1="123.94" y2="123.94"/>
<line stroke="red" stroke-width="1" x1="794.73" x2="806.4" y1="128.82" y2="128.82"/>
<line stroke="red" stroke-width="1" x1="806.4" x2="813.12" y1="139.67000000000002" y2="139.67000000000002"/>
<line stroke="red" stroke-width="1" x1="813.12" x2="822.08" y1="147.8" y2="147.8"/>
<line stroke="red" stroke-width="1" x1="822.08" x2="830.8100000000001" y1="156.16" y2="156.16"/>
<line stroke="red" stroke-width="1" x1="830.8100000000001" x2="841.6" y1="162.49" y2="162.49"/>
<line stroke="red" stroke-width="1" x1="841.6" x2="847.38" y1="173.75" y2="173.75"/>
<line stroke="red" stroke-width="1" x1="847.38" x2="858.0500000000001" y1="180.41" y2="180.41"/>
<line stroke="red" stroke-width="1" x1="858.0500000000001" x2="864.82" y1="190.61" y2="190.61"/>
<line stroke="red" stroke-width="1" x1="864.82" x2="872.51" y1="199.97" y2="199.97"/>
<line stroke="red" stroke-width="1" x1="872.51" x2="879.63" y1="209.78" y2="209.78"/>
<line stroke="red" stroke-width="1" x1="879.63" x2="886.6" y1="219.68" y2="219.68"/>
<line stroke="red" stroke-width="1" x1="886.6" x2="897.11" y1="227.14000000000001" y2="227.14000000000001"/>
<line stroke="red" stroke-width="1" x1="897.11" x2="904.44" y1="236.93" y2="236.93"/>
<line stroke="red" stroke-width="1" x1="904.44" x2="913.08" y1="245.97" y2="245.97"/>
<line stroke="red" stroke-width="1" x1="913.08" x2="917.9300000000001" y1="257.36" y2="257.36"/>
<line stroke="red" stroke-width="1" x1="917.9300000000001" x2="923.6800000000001" y1="268.17" y2="268.17"/>
<line stroke="red" stroke-width="1" x1="923.6800000000001" x2="928.57" y1="279.41" y2="279.41"/>
<line stroke="red" stroke-width="1" x1="928.57" x2="931.69" y1="291.46" y2="291.46"/>
<line stroke="red" stroke-width="1" x1="931.69" x2="936.09" y1="302.8" y2="302.8"/>
<line stroke="red" stroke-width="1" x1="936.09" x2="938.36" y1="315" y2="315"/>
<line stroke="red" stroke-width="1" x1="938.36" x2="944.97" y1="325.36" y2="325.36"/>
<line stroke="red" stroke-width="1" x1="944.97" x2="952.25" y1="335.6" y2="335.6"/>
<line stroke="red" stroke-width="1" x1="952.25" x2="950.74" y1="348.96" y2="348.96"/>
<line stroke="red" stroke-width="1" x1="950.74" x2="955.44" y1="360.11" y2="360.11"/>
<line stroke="red" stroke-width="1" x1="955.44" x2="964.26" y1="370.18" y2="370.18"/>
<line stroke="red" stroke-width="1" x1="964.26" x2="962.6700000000001" y1="383.18" y2="383.18"/>
<line stroke="red" stroke-width="1" x1="962.6700000000001" x2="966.33" y1="394.74" y2="394.74"/>
<line stroke="red" stroke-width="1" x1="966.33" x2="975.0500000000001" y1="405.36" y2="405.36"/>
<line stroke="red" stroke-width="1" x1="975.0500000000001" x2="970.33" y1="418.62" y2="418.62"/>
<line stroke="red" stroke-width="1" x1="970.33" x2="973.49" y1="430.38" y2="430.38"/>
<line stroke="red" stroke-width="1" x1="973.49" x2="975.1" y1="442.40000000000003" y2="442.40000000000003"/>
<line stroke="red" stroke-width="1" x1="975.1" x2="979.61" y1="454.15000000000003" y2="454.15000000000003"/>
<line stroke="red" stroke-width="1" x1="979.61" x2="980.6700000000001" y1="466.31" y2="466.31"/>
<line stroke="red" stroke-width="1" x1="980.6700000000001" x2="980.84" y1="478.52" y2="478.52"/>
<line stroke="red" stroke-width="1" x1="980.84" x2="976.02" y1="490.81" y2="490.81"/>
<line stroke="red" stroke-width="1" x1="976.02" x2="984.37" y1="502.92" y2="502.92"/>
<rect fill="none" height="173.24" stroke="green" stroke-width="2" width="888.99" x="57.35" y="502.69"/>
</svg>